<?xml version="1.0" standalone="no"?>
<!DOCTYPE svg PUBLIC "-//W3C//DTD SVG 20010904//EN"
 "http://www.w3.org/TR/2001/REC-SVG-20010904/DTD/svg10.dtd">
<svg version="1.0" xmlns="http://www.w3.org/2000/svg"
 width="500.000000pt" height="375.000000pt" viewBox="0 0 500.000000 375.000000"
 preserveAspectRatio="xMidYMid meet">

<g transform="translate(0.000000,375.000000) scale(0.100000,-0.100000)"
fill="#000000" stroke="none">
<path d="M80 3718 c0 -10 54 -12 243 -11 133 2 256 5 272 7 17 2 23 1 14 -1
-23 -6 -149 -133 -149 -150 0 -18 1 -18 67 21 86 51 90 51 167 6 50 -30 72
-38 80 -30 8 8 -9 31 -61 81 -73 69 -84 82 -60 74 18 -7 976 -11 1094 -5 l103
5 -75 -75 c-66 -67 -89 -100 -68 -100 3 0 34 16 69 35 34 19 72 35 84 35 12 0
49 -16 81 -35 33 -19 64 -35 70 -35 25 0 2 34 -71 104 -64 61 -74 75 -52 69
28 -8 1161 -8 1222 0 19 2 26 2 14 0 -26 -5 -151 -130 -140 -140 4 -4 41 10
82 32 l75 40 74 -40 c53 -28 78 -36 85 -29 8 8 -2 22 -32 50 -24 21 -51 48
-60 60 l-17 21 567 -2 c367 -2 574 1 587 7 11 6 -15 -25 -58 -69 -105 -107
-104 -133 3 -68 32 19 68 35 81 35 13 0 50 -16 82 -35 105 -63 105 -39 0 69
-43 43 -72 75 -64 71 8 -5 124 -10 259 -11 135 -2 247 -6 250 -9 3 -3 -104 -5
-239 -5 l-244 0 63 -58 c60 -56 74 -83 50 -98 -6 -4 -44 10 -84 32 l-73 39
-75 -40 c-55 -29 -78 -37 -86 -29 -20 20 0 58 51 97 27 21 49 43 49 48 0 5
-76 9 -180 9 -170 0 -180 -1 -180 -19 0 -10 9 -21 20 -24 13 -3 20 -14 20 -29
0 -48 -43 -63 -76 -27 -15 16 -16 24 -6 39 7 11 12 29 12 40 0 20 -6 20 -352
20 l-352 0 49 -51 50 -50 5 43 5 43 148 3 c81 1 161 -1 178 -6 l32 -8 -27 -12
c-22 -10 -26 -10 -20 0 3 7 -8 -2 -26 -20 -27 -28 -33 -43 -37 -93 -5 -55 -21
-75 -31 -38 -3 11 -2 11 7 -1 6 -8 11 -10 11 -4 0 6 -7 17 -15 24 -8 7 -15 22
-15 33 0 25 -13 14 -17 -14 -2 -12 1 -18 7 -14 5 3 10 2 10 -3 0 -6 -7 -12
-15 -16 -8 -3 -15 -10 -15 -16 0 -6 4 -9 9 -5 5 3 12 1 15 -4 4 -5 -2 -8 -11
-7 -9 2 -19 8 -21 15 -3 9 -7 9 -17 1 -9 -8 -15 -8 -20 0 -6 10 -5 11 18 14
11 1 12 16 5 67 -1 9 -7 16 -13 15 -5 -1 0 2 13 8 12 5 22 17 22 25 0 14 2 14
10 1 6 -9 5 -17 -2 -21 -15 -9 -22 -59 -9 -59 5 0 8 11 7 24 -2 18 1 22 16 18
14 -3 17 0 12 13 -4 10 -1 21 7 27 11 8 10 9 -4 4 -11 -3 -20 0 -24 10 -5 14
-8 12 -20 -7 -14 -23 -14 -23 -9 11 2 19 2 29 -1 23 -2 -7 -9 -13 -14 -13 -6
0 -8 4 -5 8 6 10 -24 9 -40 -1 -6 -3 -14 -3 -18 0 -14 14 -35 11 -29 -4 4 -11
8 -11 13 -3 12 19 18 -3 9 -29 -9 -23 -10 -23 -32 -5 -12 10 -16 12 -9 4 10
-12 8 -16 -9 -26 -19 -10 -19 -12 -5 -17 10 -4 15 -3 11 3 -3 6 -2 10 3 10 16
0 23 -31 12 -45 -6 -8 -7 -16 -2 -19 14 -8 33 39 20 52 -16 16 9 25 33 11 17
-9 19 -13 8 -20 -12 -7 -12 -9 0 -9 11 0 10 -4 -4 -20 -9 -10 -15 -26 -12 -35
4 -8 2 -15 -3 -15 -6 0 -10 8 -10 17 0 12 -3 14 -10 7 -13 -13 28 -96 43 -87
6 4 7 1 2 -6 -4 -7 2 -22 16 -37 28 -30 20 -31 -13 -1 -24 21 -80 66 -100 78
-6 4 -8 11 -5 16 3 5 8 21 11 35 4 22 1 25 -17 20 -18 -5 -19 -6 -4 -11 16 -6
16 -8 2 -26 -13 -17 -16 -18 -25 -5 -15 23 -12 50 6 50 8 0 13 4 9 9 -3 6 -13
9 -23 9 -9 -1 -46 16 -82 37 l-65 39 -75 -41 c-41 -22 -81 -38 -87 -36 -25 9
-12 41 32 82 25 23 45 44 45 46 0 3 -124 5 -275 5 -263 0 -275 -1 -275 -19 0
-10 7 -22 16 -25 20 -8 15 -55 -8 -70 -39 -24 -80 43 -43 70 10 8 15 20 12 29
-6 13 -44 15 -294 15 l-287 0 29 -30 c15 -16 32 -27 37 -24 5 3 12 -3 15 -15
3 -11 9 -19 13 -16 4 3 13 -9 20 -26 10 -23 10 -33 1 -42 -9 -9 -27 -3 -80 26
-38 20 -76 37 -84 37 -9 0 -42 -16 -74 -35 -65 -39 -88 -43 -97 -18 -5 12 11
34 60 80 l67 63 -367 0 c-360 0 -366 0 -366 -20 0 -11 5 -29 12 -40 23 -36
-39 -79 -70 -48 -20 20 -15 59 8 65 11 3 20 14 20 24 0 18 -10 19 -180 19 -99
0 -180 -4 -180 -8 0 -5 25 -30 56 -56 30 -27 55 -42 54 -35 -2 8 -2 31 -1 52
l1 38 98 -3 97 -3 -2 -39 c-2 -22 -10 -45 -20 -53 -10 -8 -12 -11 -4 -7 18 9
-2 -21 -46 -69 -16 -18 -34 -47 -40 -64 -10 -29 -9 -33 19 -58 16 -15 32 -24
36 -21 3 3 2 6 -3 6 -4 0 3 10 17 23 14 12 37 39 53 60 39 53 44 38 6 -19 -33
-51 -39 -68 -18 -62 6 3 13 16 15 30 2 15 9 29 17 32 21 8 0 -52 -26 -75 l-22
-19 26 0 c15 0 27 6 27 13 0 6 5 4 11 -6 16 -28 -5 -49 -37 -36 -14 5 -36 9
-49 9 -17 0 -29 9 -40 30 -8 16 -29 39 -45 51 -16 12 -27 26 -24 31 3 5 2 8
-3 7 -22 -4 -35 2 -30 14 3 9 -2 13 -15 13 -26 -1 -48 52 -27 64 7 5 16 7 19
5 3 -2 7 6 7 18 2 22 2 22 -13 2 -15 -20 -16 -19 -83 18 -38 20 -77 37 -86 37
-10 0 -47 -16 -83 -36 -59 -33 -65 -35 -80 -20 -15 15 -12 21 43 76 l59 59
-243 3 c-202 3 -245 1 -254 -11 -7 -8 -7 -12 -2 -9 6 4 9 -16 7 -55 -3 -47 -6
-57 -14 -43 -6 10 -7 36 -4 57 5 31 3 39 -9 39 -11 0 -15 -13 -16 -57 -1 -32
-3 -71 -4 -88 -1 -16 -6 -796 -10 -1733 l-8 -1703 43 -44 44 -45 2412 0 2412
0 41 40 41 40 0 1517 c0 1514 -6 2073 -21 2073 -14 0 -49 34 -49 47 0 11 -463
13 -2420 13 -1929 0 -2420 -3 -2420 -12z m283 -62 c-3 -13 0 -26 5 -30 6 -4 8
3 6 16 -2 13 -2 17 2 11 9 -19 25 -16 22 5 -2 11 3 17 17 17 18 0 20 -6 17
-61 -3 -54 -1 -64 18 -77 16 -11 19 -21 14 -42 -7 -27 -60 -68 -76 -59 -5 3
-7 2 -6 -3 3 -11 -52 -69 -63 -65 -5 1 -8 -1 -7 -5 1 -5 -8 -27 -20 -50 -15
-28 -29 -43 -42 -43 -25 0 -92 -31 -106 -50 -9 -11 -15 -12 -26 -2 -8 6 -18 9
-21 5 -10 -9 -8 10 2 25 7 11 9 11 14 -2 4 -9 12 -16 18 -16 7 0 2 11 -11 25
-13 14 -26 22 -29 20 -9 -9 -8 -84 1 -79 16 10 12 -91 -4 -116 -7 -12 -8 -11
-3 4 3 11 1 22 -4 25 -5 3 -11 52 -12 108 -4 95 -3 101 13 86 25 -23 58 -8 58
26 0 43 -22 55 -54 30 l-26 -20 0 44 c0 30 5 47 14 50 17 7 39 -16 28 -28 -4
-5 -1 -5 6 -1 7 4 15 1 18 -8 3 -9 10 -14 14 -11 5 3 9 -3 9 -12 1 -45 4 -53
16 -43 14 12 14 -17 0 -40 -7 -12 -6 -13 7 -3 8 7 17 10 21 7 12 -12 47 8 47
27 0 14 4 18 13 13 9 -6 9 -5 -1 8 -14 18 -66 13 -55 -6 4 -6 -1 -5 -10 3 -9
7 -17 10 -17 5 0 -5 -4 -2 -9 6 -15 23 -5 27 49 20 27 -4 50 -3 50 2 0 4 7 8
16 8 9 0 12 -5 8 -12 -4 -7 -4 -10 0 -6 4 3 8 9 7 12 0 8 73 82 79 80 3 -1 7
24 8 56 4 71 -15 113 -61 137 l-32 17 25 7 c48 13 58 11 53 -15z m1313 -31 c1
-27 -3 -60 -7 -72 -5 -13 -5 -22 -1 -21 4 1 15 -2 25 -6 18 -8 24 -46 7 -46
-5 0 -7 -6 -4 -13 2 -7 -6 -19 -18 -25 -36 -19 -57 -35 -94 -70 -34 -34 -59
-35 -49 -2 3 10 0 24 -8 32 -7 7 -12 24 -11 38 11 94 7 120 -23 163 -17 23
-35 41 -42 40 -6 -2 -11 1 -11 7 0 5 -7 6 -17 3 -11 -4 -14 -3 -9 5 5 8 -2 10
-24 7 -91 -15 -95 -15 -80 -5 17 11 10 13 -14 4 -9 -3 -13 -10 -10 -15 3 -5
-1 -7 -8 -4 -7 3 -26 -12 -43 -32 -26 -33 -30 -47 -31 -105 -1 -45 2 -65 9
-61 6 4 8 0 4 -9 -3 -9 1 -24 9 -35 9 -10 13 -12 9 -3 -6 13 -5 13 7 0 7 -8
29 -22 48 -31 33 -16 33 -17 8 -15 -14 0 -24 5 -21 10 3 5 0 6 -8 4 -8 -3 -13
-11 -11 -17 1 -7 -2 -10 -7 -6 -6 3 -8 12 -5 20 7 18 -24 13 -37 -6 -6 -9 -8
-3 -4 20 5 26 1 38 -16 54 -29 27 -49 78 -49 126 0 22 -5 41 -11 43 -12 4 -20
56 -12 71 3 4 129 6 281 5 l277 -3 1 -50z m762 14 c4 -46 -29 -92 -50 -70 -11
12 -11 13 1 6 10 -5 12 -4 7 4 -4 6 -12 9 -17 5 -5 -3 -15 -1 -22 4 -20 16
-73 24 -112 16 -23 -4 -53 -22 -80 -48 l-44 -41 2 -68 c1 -37 -1 -67 -4 -67
-3 0 -14 9 -24 20 -10 12 -33 30 -51 40 -38 24 -51 60 -27 78 25 18 38 15 22
-5 -12 -16 -12 -17 2 -6 8 7 24 10 36 7 11 -3 24 -1 27 4 4 6 -3 8 -16 6 -21
-4 -21 -4 -3 5 11 4 22 7 25 5 4 -1 11 6 18 16 9 14 8 21 -3 30 -17 14 -21 35
-5 25 11 -7 2 23 -13 43 -12 15 -43 16 -53 1 -4 -7 0 -9 13 -5 26 8 52 -19 35
-36 -9 -9 -12 -8 -12 5 0 9 -5 17 -11 17 -6 0 -9 -7 -5 -15 6 -17 4 -18 -18
-9 -16 6 -22 54 -9 68 4 3 93 5 197 4 l191 -3 3 -36z m520 -19 c2 -36 10 -62
22 -75 24 -27 12 -57 -37 -88 -37 -24 -125 -113 -131 -132 -9 -36 -16 -44 -45
-49 -18 -4 -42 -7 -54 -8 -13 0 -20 -5 -16 -11 3 -6 1 -7 -5 -3 -11 7 -16 -5
-13 -30 1 -7 -5 -14 -14 -17 -28 -11 -24 10 9 47 24 26 39 34 52 29 13 -5 15
-3 9 7 -5 8 -4 11 3 6 6 -4 24 -3 39 1 l28 7 -25 7 -25 7 25 1 c20 1 22 3 10
11 -13 8 -12 10 4 10 12 0 16 5 12 15 -3 8 1 21 9 29 16 16 20 30 6 22 -5 -3
-11 1 -15 9 -6 16 14 16 27 0 4 -6 11 -4 18 5 9 13 10 12 5 -2 -10 -31 3 -19
18 15 7 19 26 44 42 57 28 22 29 22 4 16 -17 -5 -21 -4 -12 2 19 13 10 47 -11
46 -10 -1 -17 5 -17 17 0 17 -8 19 -80 19 -81 0 -87 3 -81 42 1 8 -55 2 -70
-7 -7 -5 -6 -11 1 -20 7 -8 9 -19 5 -25 -4 -6 3 -6 19 2 14 6 26 16 26 22 0
12 20 -14 20 -27 0 -5 -10 -6 -22 -3 -13 3 -17 3 -10 0 20 -9 14 -26 -8 -19
-15 5 -18 2 -15 -14 2 -11 0 -23 -5 -26 -5 -3 -7 3 -5 15 2 11 -1 22 -6 26 -5
3 -7 15 -3 26 5 17 3 18 -14 9 -16 -8 -25 -6 -46 14 -15 14 -26 35 -26 50 l0
25 198 -2 197 -3 3 -55z m1230 30 c2 -14 -1 -20 -5 -15 -15 19 -48 41 -39 27
7 -12 4 -12 -13 -2 -18 9 -26 9 -39 -2 -11 -9 -14 -10 -8 0 10 16 -55 17 -72
0 -8 -8 -12 -9 -12 -1 0 18 20 22 105 20 77 -2 80 -3 83 -27z m372 15 c-17
-21 -4 -36 23 -26 15 6 26 4 35 -5 7 -8 11 -14 8 -14 -2 0 -13 -3 -23 -6 -15
-5 -15 -4 -3 5 12 9 11 11 -8 11 -13 0 -21 -4 -17 -9 3 -5 0 -13 -7 -17 -7 -4
-10 -3 -5 1 4 5 0 17 -9 27 -14 14 -14 20 -4 33 7 8 15 15 17 15 3 0 0 -7 -7
-15z m70 5 c0 -5 -2 -10 -4 -10 -3 0 -8 5 -11 10 -3 6 -1 10 4 10 6 0 11 -4
11 -10z m57 4 c-3 -3 -12 -4 -19 -1 -8 3 -5 6 6 6 11 1 17 -2 13 -5z m-4562
-26 c-15 -12 -33 -35 -41 -52 l-13 -31 -1 37 c0 56 8 68 47 68 l36 0 -28 -22z
m3755 -7 c0 -17 -4 -33 -10 -36 -5 -3 -10 -2 -10 4 0 6 -17 22 -37 36 l-38 25
48 0 c45 0 47 -1 47 -29z m840 25 c0 -2 -7 -7 -16 -10 -8 -3 -12 -2 -9 4 6 10
25 14 25 6z m175 -17 c4 -11 4 -23 1 -26 -3 -4 -6 1 -6 9 0 8 -15 20 -32 26
l-33 10 32 1 c24 1 33 -4 38 -20z m25 6 c0 -8 -2 -15 -4 -15 -2 0 -6 7 -10 15
-3 8 -1 15 4 15 6 0 10 -7 10 -15z m-1462 -18 c7 -8 7 -18 2 -27 -8 -13 -10
-12 -10 3 0 20 -16 23 -23 5 -2 -7 -8 -10 -12 -6 -8 8 12 38 25 38 4 0 12 -6
18 -13z m1212 9 c0 -2 -7 -9 -15 -16 -13 -11 -14 -10 -9 4 5 14 24 23 24 12z
m-534 -17 c3 -6 1 -16 -5 -22 -8 -8 -11 -6 -11 6 0 9 -5 17 -11 17 -6 0 -9 -7
-6 -14 4 -10 1 -13 -9 -9 -25 10 -14 33 17 33 10 0 21 -5 25 -11z m811 -81
c-2 -18 -4 -4 -4 32 0 36 2 50 4 33 2 -18 2 -48 0 -65z m-4666 65 c13 -16 12
-17 -3 -4 -10 7 -18 15 -18 17 0 8 8 3 21 -13z m-23 -29 c24 -16 30 -59 10
-66 -7 -3 -32 -3 -55 0 -40 4 -43 6 -43 33 0 45 46 63 88 33z m1810 -15 c-6
-4 -14 -13 -19 -20 -6 -10 -9 -4 -9 19 0 29 2 31 20 20 12 -8 15 -15 8 -19z
m-1934 -22 c-5 -37 -2 -47 21 -75 21 -25 34 -32 63 -32 47 0 88 33 101 80 5
19 10 27 10 17 2 -40 -28 -88 -65 -103 -45 -19 -78 -12 -115 26 -29 28 -38 75
-23 114 11 28 14 17 8 -27z m1986 28 c14 -16 10 -18 -14 -9 -9 3 -16 10 -16
15 0 14 16 11 30 -6z m1654 -4 c33 -36 4 -58 -71 -53 -26 2 -32 39 -11 60 18
18 63 14 82 -7z m1041 -1 c29 -32 13 -50 -45 -50 -46 0 -50 2 -50 23 0 13 5
28 12 35 18 18 63 14 83 -8z m-3417 -6 c51 -35 2 -83 -60 -60 -47 18 -30 75
22 76 9 0 26 -7 38 -16z m-122 -45 c0 -44 4 -55 28 -75 52 -46 134 -18 155 53
10 37 11 37 6 4 -7 -49 -30 -79 -68 -89 -45 -12 -74 -4 -107 30 -30 29 -39 73
-24 112 9 24 10 21 10 -35z m2369 -57 c-8 -10 -22 60 -17 84 6 24 7 20 13 -26
3 -30 5 -56 4 -58z m1032 41 c-2 -16 -4 -5 -4 22 0 28 2 40 4 28 2 -13 2 -35
0 -50z m-1966 39 c-10 -3 -10 -6 -1 -12 8 -5 7 -9 -5 -13 -9 -4 -13 -3 -10 3
3 6 1 10 -6 10 -7 0 -4 6 7 14 10 8 21 12 24 9 3 -3 -1 -8 -9 -11z m-414 2
c-3 -3 -12 -4 -19 -1 -8 3 -5 6 6 6 11 1 17 -2 13 -5z m289 -18 c3 -8 1 -55
-3 -105 -5 -55 -5 -92 0 -94 6 -2 2 -11 -7 -20 -10 -9 -14 -17 -10 -17 3 0 1
-7 -6 -15 -7 -8 -16 -12 -21 -9 -5 3 -9 -15 -9 -40 0 -35 5 -48 19 -56 11 -5
19 -19 18 -30 -2 -24 -5 -25 -29 -3 -27 24 -25 119 3 149 19 21 21 33 20 138
-1 78 2 116 9 116 6 0 13 -6 16 -14z m-1476 -10 c-7 -7 -13 -7 -20 0 -6 6 -3
10 10 10 13 0 16 -4 10 -10z m-968 -86 c52 -44 143 -30 189 28 23 29 26 16 3
-16 -34 -49 -125 -68 -184 -37 -36 19 -70 66 -70 97 1 19 4 17 20 -15 10 -21
29 -46 42 -57z m215 68 c-3 -8 -6 -5 -6 6 -1 11 2 17 5 13 3 -3 4 -12 1 -19z
m338 2 c10 -11 16 -20 13 -20 -3 0 -13 9 -23 20 -10 11 -16 20 -13 20 3 0 13
-9 23 -20z m3124 -27 c-16 -30 -59 -53 -96 -52 -22 1 -20 3 14 11 43 9 82 45
84 77 0 12 2 12 6 3 3 -8 -1 -25 -8 -39z m1048 25 c-3 -8 -6 -5 -6 6 -1 11 2
17 5 13 3 -3 4 -12 1 -19z m-2547 -8 c17 -17 18 -23 8 -40 -22 -35 -98 -22
-98 16 0 43 56 58 90 24z m858 4 c31 -22 29 -50 -5 -57 -47 -9 -83 3 -83 27 0
45 45 60 88 30z m1372 12 c0 -2 -8 -10 -17 -17 -16 -13 -17 -12 -4 4 13 16 21
21 21 13z m-3893 -28 c13 -12 23 -30 23 -40 0 -17 -7 -19 -51 -16 -66 4 -87
29 -50 59 30 25 49 24 78 -3z m1821 -140 c-1 -90 -4 -142 -6 -115 -2 27 -8 47
-15 47 -8 0 -8 3 1 12 19 19 14 30 -10 22 -19 -6 -21 -4 -11 7 12 15 13 70 0
62 -4 -2 -5 -13 -2 -23 4 -13 0 -20 -14 -25 -12 -4 -18 -12 -14 -21 3 -7 0
-14 -5 -14 -19 0 -22 17 -6 31 20 16 44 75 44 106 0 19 27 71 38 73 1 0 1 -73
0 -162z m1733 153 c6 9 9 10 9 2 0 -7 -11 -25 -25 -40 -13 -15 -25 -23 -25
-16 0 7 8 17 18 23 12 8 13 13 4 16 -6 3 -9 11 -5 17 5 8 8 7 11 -2 4 -11 6
-11 13 0z m-3679 -51 c-3 -42 0 -53 22 -75 44 -44 110 -31 146 28 11 18 20 26
20 19 0 -32 -36 -73 -72 -83 -85 -22 -167 68 -128 142 6 10 12 19 13 19 1 0 0
-22 -1 -50z m1680 -67 c10 -9 37 -20 60 -24 l43 -6 -36 -2 c-66 -2 -118 60
-102 123 7 29 8 27 13 -21 3 -30 13 -60 22 -70z m165 95 c-3 -8 -6 -5 -6 6 -1
11 2 17 5 13 3 -3 4 -12 1 -19z m678 -86 c-8 -11 -23 65 -18 87 6 22 9 17 14
-29 3 -30 5 -56 4 -58z m1052 101 c-4 -3 -1 -13 6 -22 11 -14 10 -14 -5 -2
-16 12 -16 31 -1 31 4 0 3 -3 0 -7z m789 -31 c-27 -52 -110 -87 -152 -64 -15
8 -9 10 29 10 52 0 94 24 117 66 7 14 15 24 17 22 3 -2 -2 -17 -11 -34z
m-3401 -2 c-4 -12 -25 -34 -47 -51 -71 -51 -175 -32 -207 37 -12 26 -10 26 27
-8 70 -64 160 -56 207 18 22 35 30 37 20 4z m277 -22 c-3 -47 -1 -56 22 -77
49 -46 137 -21 155 43 6 20 9 24 10 11 2 -39 -35 -83 -76 -91 -80 -15 -152 65
-123 136 7 16 13 30 15 30 1 0 0 -24 -3 -52z m130 35 c38 -34 6 -65 -59 -56
-38 6 -50 29 -27 54 21 23 61 24 86 2z m2510 0 c24 -22 23 -39 -4 -47 -68 -18
-109 4 -82 42 18 26 60 29 86 5z m438 -3 c-13 -24 -50 -40 -88 -39 -21 0 -17
4 19 15 26 7 52 21 59 29 18 21 23 19 10 -5z m-4133 -22 c-3 -7 -5 -2 -5 12 0
14 2 19 5 13 2 -7 2 -19 0 -25z m2759 20 c-2 -16 -17 -19 -36 -6 -12 8 -12 9
2 4 10 -3 20 -1 23 4 8 14 14 12 11 -2z m96 -10 c-7 -7 -12 -8 -12 -2 0 6 3
14 7 17 3 4 9 5 12 2 2 -3 -1 -11 -7 -17z m983 4 c-3 -3 -11 0 -18 7 -9 10 -8
11 6 5 10 -3 15 -9 12 -12z m-3816 -92 c-27 -47 -70 -70 -133 -70 -36 0 -52 6
-80 30 -19 17 -39 45 -45 63 l-10 32 17 -25 c55 -81 114 -106 180 -76 42 19
81 70 83 107 2 23 2 23 6 2 2 -13 -6 -41 -18 -63z m3540 25 l0 -20 -9 20 c-5
11 -9 29 -9 40 l0 20 9 -20 c5 -11 9 -29 9 -40z m-2772 25 c1 -11 -2 -20 -8
-20 -10 0 -12 23 -2 33 9 9 9 10 10 -13z m858 -26 c-9 -14 -19 -23 -22 -20 -4
3 1 14 10 24 10 10 17 25 18 33 0 10 2 11 6 1 3 -7 -3 -24 -12 -38z m861 7
c-20 -37 -44 -51 -88 -50 l-33 1 32 8 c44 10 80 35 88 60 4 12 9 19 12 17 2
-3 -3 -19 -11 -36z m49 2 c-20 -48 -29 -58 -69 -77 -46 -22 -94 -20 -133 4
-41 25 -43 36 -3 15 70 -36 168 -5 192 61 6 18 16 34 20 34 5 0 1 -17 -7 -37z
m461 7 c25 0 55 5 67 11 22 10 22 10 2 -6 -40 -31 -110 -31 -151 0 -18 14 -17
14 9 5 16 -5 49 -10 73 -10z m731 -2 c-3 -8 -6 -5 -6 6 -1 11 2 17 5 13 3 -3
4 -12 1 -19z m-2477 -39 c-39 -93 -166 -115 -235 -41 -34 37 -21 42 16 6 26
-24 38 -29 83 -29 64 0 102 23 125 76 9 21 18 34 20 28 1 -5 -3 -23 -9 -40z
m410 5 c-26 -41 -71 -64 -126 -64 -38 0 -104 33 -104 52 0 6 9 3 19 -6 11 -10
38 -22 61 -27 53 -12 119 15 146 60 10 17 20 29 22 26 2 -2 -6 -20 -18 -41z
m1235 24 c5 -4 0 -6 -12 -6 -13 1 -19 7 -16 15 3 8 8 10 12 6 3 -4 10 -11 16
-15z m494 19 c-2 -1 -13 -9 -24 -17 -19 -14 -19 -14 -6 3 7 9 18 17 24 17 6 0
8 -1 6 -3z m380 -29 c-19 -66 -97 -117 -159 -103 -48 11 -43 22 8 18 58 -6
108 24 135 80 23 45 29 47 16 5z m-2994 9 c15 5 17 3 12 -12 -9 -21 10 -48 26
-38 6 4 1 -8 -12 -25 -14 -20 -31 -32 -45 -32 -12 0 -43 -13 -69 -30 -26 -16
-47 -26 -47 -22 0 4 -4 1 -9 -7 -6 -9 -8 -5 -8 13 0 24 1 25 13 9 12 -17 12
-17 11 1 -1 10 5 21 13 23 13 4 13 3 0 -7 -13 -9 -12 -10 5 -7 11 2 19 9 17
16 -4 18 18 42 30 35 6 -4 5 -10 -3 -15 -10 -6 -10 -9 -2 -9 6 0 15 5 18 10 3
6 17 10 30 10 13 0 26 4 29 8 2 4 -10 6 -29 4 -18 -2 -36 1 -39 7 -5 7 3 9 24
5 16 -4 30 -4 30 0 0 12 -69 34 -92 30 -16 -4 -13 -1 8 9 18 8 35 20 39 26 5
9 10 9 20 1 7 -6 21 -7 30 -3z m2917 -48 c-22 -20 -42 -29 -65 -28 l-32 1 38
12 c21 7 48 21 60 32 12 11 24 18 27 16 3 -2 -10 -17 -28 -33z m-4329 -4 c-3
-9 -8 -14 -10 -11 -3 3 -2 9 2 15 9 16 15 13 8 -4z m1282 5 c-3 -5 -10 -10
-16 -10 -5 0 -9 5 -9 10 0 6 7 10 16 10 8 0 12 -4 9 -10z m1245 -4 c-4 -4 -16
-4 -26 2 -16 9 -14 10 8 9 15 -1 23 -6 18 -11z m1444 2 c-4 -5 -9 -7 -12 -4
-3 3 -11 1 -18 -5 -8 -7 -14 -6 -20 2 -4 7 -3 9 4 5 6 -3 13 -3 16 2 3 5 12 9
20 9 8 0 13 -4 10 -9z m-3848 -27 c-4 -6 -15 -10 -24 -10 -15 1 -14 2 1 6 12
3 16 10 12 21 -5 13 -3 14 6 5 6 -6 8 -16 5 -22z m971 23 c-3 -3 -12 -4 -19
-1 -8 3 -5 6 6 6 11 1 17 -2 13 -5z m2288 -4 c3 -6 -1 -7 -9 -4 -18 7 -21 14
-7 14 6 0 13 -4 16 -10z m-2395 -10 c0 -5 -4 -10 -10 -10 -5 0 -10 5 -10 10 0
6 5 10 10 10 6 0 10 -4 10 -10z m38 -25 c-3 -3 -9 2 -12 12 -6 14 -5 15 5 6 7
-7 10 -15 7 -18z m1122 -29 c7 -11 7 -16 1 -11 -6 3 -11 1 -11 -5 0 -6 7 -13
15 -16 8 -4 15 -11 15 -17 0 -5 -10 -2 -21 9 -21 19 -22 19 -15 -3 4 -13 2
-24 -5 -29 -8 -5 -9 -3 -4 6 4 7 2 16 -6 21 -10 6 -11 11 -3 17 13 8 15 42 2
42 -4 0 -8 -6 -9 -12 0 -8 -3 -7 -6 2 -3 8 -13 23 -22 34 -16 18 -15 18 21 0
20 -11 41 -27 48 -38z m470 48 c0 -2 -9 -8 -20 -14 -15 -8 -18 -8 -14 3 4 11
34 21 34 11z m-1640 -34 c31 -32 38 -50 19 -50 -5 0 -8 4 -5 8 3 5 -8 19 -25
32 -26 23 -37 40 -24 40 3 0 19 -14 35 -30z m3714 21 c-8 -8 -43 -8 -38 0 2 4
13 7 24 6 10 -1 17 -3 14 -6z m-3676 -26 c13 -29 5 -33 -14 -7 -15 20 -18 32
-6 32 5 0 14 -11 20 -25z m34 2 c-15 -18 2 -41 29 -42 12 0 24 -6 26 -12 3 -8
-3 -13 -14 -13 -15 0 -16 2 -3 10 13 8 12 10 -2 10 -10 0 -18 -4 -18 -10 0 -5
-7 -10 -15 -10 -8 0 -15 -6 -16 -12 0 -10 -2 -10 -6 0 -2 6 -9 10 -13 7 -5 -3
-11 -1 -15 5 -3 5 1 10 10 10 10 0 14 5 9 13 -6 10 -4 10 7 0 22 -22 30 -14
13 12 -13 20 -13 26 -2 39 16 17 25 12 10 -7z m1231 5 c15 -16 15 -19 2 -19
-8 0 -13 3 -10 5 3 3 0 11 -6 19 -17 20 -5 16 14 -5z m-1156 -14 c-3 -8 -6 -5
-6 6 -1 11 2 17 5 13 3 -3 4 -12 1 -19z m1123 12 c0 -5 -7 -7 -15 -4 -8 4 -15
8 -15 10 0 2 7 4 15 4 8 0 15 -4 15 -10z m-59 -15 c1 -17 -18 -17 -25 0 -4 11
-1 15 10 13 8 -2 15 -7 15 -13z m-2171 -73 c0 -15 -2 -15 -10 -2 -13 20 -13
33 0 25 6 -3 10 -14 10 -23z m868 12 c46 -32 17 -68 -47 -58 -34 5 -41 10 -41
30 0 40 48 56 88 28z m-126 -42 c-3 -44 -1 -51 28 -75 39 -34 67 -34 114 -2
32 22 35 22 26 5 -50 -94 -219 -7 -181 94 6 14 12 26 13 26 2 0 1 -22 0 -48z
m513 18 c-11 -22 -22 -29 -39 -28 -16 2 -24 8 -23 20 1 15 3 16 17 3 22 -20
36 -19 20 0 -11 13 -10 14 2 10 9 -4 18 1 21 9 4 9 9 16 12 16 3 0 -1 -13 -10
-30z m918 15 c-3 -9 -8 -14 -10 -11 -3 3 -2 9 2 15 9 16 15 13 8 -4z m37 1 c0
-2 -7 -7 -16 -10 -8 -3 -12 -2 -9 4 6 10 25 14 25 6z m-1213 -43 c-3 -10 -5
-4 -5 12 0 17 2 24 5 18 2 -7 2 -21 0 -30z m1470 22 c0 -8 -4 -12 -9 -9 -5 3
-6 10 -3 15 9 13 12 11 12 -6z m60 -26 c1 -13 0 -17 -3 -9 -4 8 -16 23 -28 33
l-21 17 25 -8 c16 -6 26 -18 27 -33z m-1086 21 c11 -6 19 -21 19 -35 0 -22 -4
-25 -39 -25 -57 0 -91 37 -53 59 22 13 48 14 73 1z m1291 -12 c20 -20 20 -22
3 -35 -48 -34 -124 0 -88 39 22 24 58 23 85 -4z m1048 18 c0 -3 -4 -8 -10 -11
-5 -3 -10 -1 -10 4 0 6 5 11 10 11 6 0 10 -2 10 -4z m-3590 -30 c25 -28 21
-56 -8 -56 -75 0 -110 31 -72 62 30 24 52 22 80 -6z m48 -1 c-3 -3 -9 2 -12
12 -6 14 -5 15 5 6 7 -7 10 -15 7 -18z m1079 -7 c-1 -18 2 -46 6 -61 5 -19 4
-26 -2 -22 -14 8 -24 69 -16 94 9 30 14 26 12 -11z m1280 -20 c1 -47 0 -50 -9
-25 -8 23 -5 77 5 77 2 0 4 -24 4 -52z m-2505 -91 c33 -25 89 -17 124 18 28
28 32 17 6 -15 -12 -15 -33 -24 -65 -27 -43 -5 -49 -3 -82 30 -35 35 -44 72
-27 114 5 12 9 -1 12 -41 4 -49 9 -62 32 -79z m2045 100 c-6 -15 -16 -27 -20
-27 -5 0 0 13 9 30 22 36 29 34 11 -3z m219 6 c-10 -10 -19 5 -10 18 6 11 8
11 12 0 2 -7 1 -15 -2 -18z m684 17 c0 -5 -4 -10 -10 -10 -5 0 -10 5 -10 10 0
6 5 10 10 10 6 0 10 -4 10 -10z m923 -23 c23 -26 9 -37 -51 -37 -53 0 -67 23
-32 52 27 21 56 16 83 -15z m-3443 14 c0 -13 -30 -22 -43 -14 -7 4 -2 10 13
14 14 4 26 7 28 8 1 1 2 -3 2 -8z m25 -1 c3 -5 1 -10 -4 -10 -6 0 -11 5 -11
10 0 6 2 10 4 10 3 0 8 -4 11 -10z m2242 -12 c-3 -8 -6 -5 -6 6 -1 11 2 17 5
13 3 -3 4 -12 1 -19z m973 12 c0 -5 -5 -10 -11 -10 -5 0 -7 5 -4 10 3 6 8 10
11 10 2 0 4 -4 4 -10z m-2800 -40 c-26 -62 -100 -100 -168 -86 -33 8 -100 61
-90 71 4 4 23 -6 43 -24 20 -17 45 -32 55 -32 11 -1 26 -2 33 -3 41 -6 127 62
127 101 0 9 3 13 6 10 4 -4 1 -20 -6 -37z m2866 -11 c1 -31 -2 -45 -7 -37 -14
21 -10 89 5 88 1 0 1 -23 2 -51z m-2826 33 c0 -5 -7 -17 -15 -28 -14 -18 -14
-17 -4 9 12 27 19 34 19 19z m179 -51 c1 -9 -7 -5 -19 9 -22 25 -26 35 -10 25
6 -3 10 2 11 12 1 13 3 11 9 -7 4 -14 8 -31 9 -39z m1018 46 c0 -7 -9 -13 -19
-13 -18 0 -18 1 -2 13 10 7 18 13 19 13 1 0 2 -6 2 -13z m2033 3 c0 -5 -7 -10
-15 -10 -8 0 -15 5 -15 10 0 6 7 10 15 10 8 0 15 -4 15 -10z m-2728 -42 c-6
-6 -7 0 -4 19 5 21 7 23 10 9 2 -10 0 -22 -6 -28z m888 38 c0 -2 -8 -10 -17
-17 -16 -13 -17 -12 -4 4 13 16 21 21 21 13z m95 -76 c44 -44 77 -80 75 -80
-3 0 -41 36 -85 80 -44 44 -77 80 -75 80 3 0 41 -36 85 -80z m-955 10 c-26
-51 -92 -85 -143 -74 -44 9 -83 30 -90 48 -4 9 7 6 30 -10 71 -48 169 -21 201
56 10 21 18 35 20 30 2 -5 -6 -27 -18 -50z m1252 28 c-8 -8 -9 -4 -5 13 4 13
8 18 11 10 2 -7 -1 -18 -6 -23z m31 -31 c-25 -44 -96 -79 -143 -71 -38 7 -85
32 -76 41 3 4 15 -2 26 -12 15 -14 31 -17 76 -13 50 4 61 9 91 41 18 20 34 47
34 59 1 18 2 19 6 5 2 -9 -4 -32 -14 -50z m-483 50 c0 -2 -10 -12 -22 -23
l-23 -19 19 23 c18 21 26 27 26 19z m197 -17 c-3 -12 4 -30 19 -47 35 -41 29
-47 -8 -10 -27 27 -35 46 -29 72 1 3 6 5 12 5 6 0 9 -9 6 -20z m1490 -2 c-3
-8 -6 -5 -6 6 -1 11 2 17 5 13 3 -3 4 -12 1 -19z m-2991 -67 c-97 -98 -94
-118 10 -60 l74 41 75 -41 c41 -23 77 -41 80 -41 19 0 -5 35 -72 105 l-78 80
83 -80 c45 -44 82 -85 82 -93 0 -26 -29 -22 -86 12 -32 20 -69 36 -82 36 -13
0 -51 -16 -83 -35 -68 -39 -77 -42 -86 -19 -4 11 19 40 73 95 43 43 81 79 84
79 2 0 -31 -36 -74 -79z m1109 69 c3 -6 -1 -7 -9 -4 -18 7 -21 14 -7 14 6 0
13 -4 16 -10z m1340 0 c-3 -5 -12 -10 -18 -10 -7 0 -6 4 3 10 19 12 23 12 15
0z m61 -69 c-44 -44 -75 -84 -72 -90 5 -7 33 3 82 29 81 43 78 43 167 -8 32
-19 62 -30 69 -26 10 5 10 4 1 -6 -9 -10 -24 -5 -76 24 -36 20 -74 36 -86 36
-11 0 -47 -16 -80 -35 -67 -39 -79 -42 -88 -19 -4 11 19 40 73 95 43 43 81 79
84 79 2 0 -31 -36 -74 -79z m-2304 35 c6 4 5 10 -3 15 -11 7 -10 9 3 9 10 0
16 -7 15 -19 0 -11 -5 -17 -10 -14 -5 3 -6 -4 -2 -17 6 -20 5 -21 -8 -9 -8 8
-14 19 -14 24 1 6 -3 9 -8 8 -6 -1 -12 8 -12 19 -2 21 -2 21 13 -1 9 -12 20
-18 26 -15z m2813 -20 c-24 -50 -71 -76 -131 -74 -39 1 -42 2 -14 5 19 2 45 5
56 8 28 6 83 63 91 95 4 14 8 19 10 13 3 -7 -3 -28 -12 -47z m-4001 -5 c28
-31 62 -44 111 -42 48 2 79 21 105 64 11 18 20 28 20 22 0 -44 -78 -105 -135
-105 -57 0 -136 58 -134 99 0 13 1 14 6 1 3 -8 15 -26 27 -39z m965 46 c-2 -1
-15 -11 -29 -22 l-25 -20 19 23 c11 12 24 22 29 22 6 0 8 -1 6 -3z m14 -22
c-3 -9 -8 -14 -10 -11 -3 3 -2 9 2 15 9 16 15 13 8 -4z m444 -10 c-32 -28 -70
-31 -107 -9 -17 10 -18 13 -5 9 42 -15 51 -14 90 4 53 25 55 25 22 -4z m1287
5 c-28 -28 -83 -36 -109 -15 -20 16 -20 16 2 5 25 -12 67 -5 98 16 28 20 33
17 9 -6z m1766 -1 c0 -11 -4 -18 -10 -14 -5 3 -7 12 -3 20 7 21 13 19 13 -6z
m-520 -4 c0 -2 -10 -13 -22 -25 -15 -14 -34 -20 -62 -18 -41 1 -41 1 -6 5 19
3 46 13 60 23 27 21 30 22 30 15z m484 -12 c-7 -2 -10 -13 -7 -24 5 -18 6 -19
19 -2 7 10 14 13 14 6 0 -6 -5 -15 -11 -18 -6 -4 -8 -14 -5 -24 5 -13 3 -13
-8 2 -14 17 -15 17 -28 -1 -7 -10 -19 -22 -27 -27 -8 -5 -3 7 12 27 29 38 34
54 15 42 -7 -4 -4 2 6 14 11 12 22 19 25 16 3 -4 1 -9 -5 -11z m-3221 -13 c-3
-12 -8 -19 -11 -16 -5 6 5 36 12 36 2 0 2 -9 -1 -20z m-329 2 c2 -4 -4 -8 -14
-8 -10 0 -16 4 -14 8 3 4 9 8 14 8 5 0 11 -4 14 -8z m1356 4 c0 -2 -8 -10 -17
-17 -16 -13 -17 -12 -4 4 13 16 21 21 21 13z m-996 -22 c3 -8 2 -12 -4 -9 -6
3 -10 10 -10 16 0 14 7 11 14 -7z m1180 -20 c32 -19 65 -33 72 -30 8 3 14 1
14 -4 0 -19 -32 -10 -91 25 -33 19 -68 35 -77 35 -9 0 -43 -16 -76 -36 -60
-36 -86 -40 -94 -14 -4 13 -3 13 11 2 14 -12 25 -9 79 22 35 20 72 36 83 36
11 0 47 -16 79 -36z m-542 -23 c-4 -43 -1 -53 21 -75 15 -14 22 -26 17 -26 -5
0 -18 12 -29 26 -25 32 -30 124 -6 124 1 0 0 -22 -3 -49z m132 33 c18 -17 19
-24 8 -39 -17 -24 -102 -10 -102 18 0 36 65 51 94 21z m556 -20 c0 -2 -9 0
-20 6 -11 6 -20 13 -20 16 0 2 9 0 20 -6 11 -6 20 -13 20 -16z m-1677 1 c-3
-9 -8 -14 -10 -11 -3 3 -2 9 2 15 9 16 15 13 8 -4z m2362 -17 c15 -22 14 -24
-12 -35 -37 -15 -83 -6 -83 16 0 44 68 57 95 19z m1165 -30 c-13 -10 -25 -16
-28 -13 -8 8 17 32 34 32 14 0 12 -4 -6 -19z m-1301 -38 c0 -23 -1 -23 -9 -5
-5 11 -9 29 -9 40 -1 17 1 17 9 5 5 -8 9 -26 9 -40z m-2819 -4 c-6 -6 -17 -3
-30 9 -30 27 -24 37 10 17 18 -10 26 -20 20 -26z m1798 -2 c-7 -16 -29 -39
-48 -52 -28 -19 -45 -23 -85 -20 -27 2 -63 12 -78 22 -39 26 -28 29 19 5 53
-27 116 -20 155 17 16 15 31 36 35 47 3 10 8 16 11 14 3 -3 -1 -18 -9 -33z
m764 -7 c15 -11 34 -17 42 -14 9 4 16 2 16 -3 0 -23 -87 6 -135 44 -19 15 -18
15 15 4 19 -6 47 -20 62 -31z m-822 -2 c-18 -19 -33 -25 -64 -24 l-41 1 35 7
c44 9 80 28 80 43 0 6 3 8 7 5 3 -4 -4 -18 -17 -32z m-1544 -1 c15 -22 15 -27
3 -35 -16 -11 -87 -5 -101 9 -6 6 -5 17 4 31 19 31 72 29 94 -5z m1064 1 c27
-14 56 -25 64 -25 7 0 17 -7 20 -16 5 -13 1 -14 -27 -9 -52 11 -153 75 -117
75 6 0 33 -11 60 -25z m1787 3 c-3 -8 -6 -5 -6 6 -1 11 2 17 5 13 3 -3 4 -12
1 -19z m-2964 -106 c16 -17 17 -21 5 -17 -27 11 -51 71 -41 108 8 30 8 30 11
-18 2 -34 10 -57 25 -73z m1751 102 c3 -8 2 -12 -4 -9 -6 3 -10 10 -10 16 0
14 7 11 14 -7z m250 0 c22 -22 20 -33 -10 -44 -30 -12 -73 -3 -81 16 -14 38
59 60 91 28z m1840 10 c9 -4 21 -15 26 -25 9 -16 5 -20 -29 -29 -46 -12 -71
-5 -71 21 0 29 39 46 74 33z m-1436 -29 c20 -13 62 -31 92 -39 30 -8 45 -15
33 -15 -31 -1 -116 32 -149 58 -36 29 -22 27 24 -4z m502 5 c-15 -28 -43 -40
-87 -39 l-38 2 43 6 c24 4 53 17 65 29 27 27 31 28 17 2z m-2059 -13 c-10 -9
-11 -8 -5 6 3 10 9 15 12 12 3 -3 0 -11 -7 -18z m1396 17 c-3 -3 -12 -4 -19
-1 -8 3 -5 6 6 6 11 1 17 -2 13 -5z m376 -9 c1 -5 -16 -11 -38 -11 -36 -1 -37
-1 -6 3 27 3 31 7 20 14 -11 8 -11 9 4 7 10 -2 19 -7 20 -13z m-3038 -4 c3 -5
2 -12 -3 -15 -5 -3 -9 1 -9 9 0 17 3 19 12 6z m1007 -40 c-4 -43 -1 -53 21
-75 42 -42 136 -27 152 25 4 11 9 18 11 16 3 -2 0 -16 -7 -30 -16 -36 -54 -52
-112 -48 -33 2 -77 56 -77 94 0 31 8 67 15 67 1 0 0 -22 -3 -49z m132 33 c9
-8 16 -19 16 -24 0 -29 -96 -32 -107 -4 -14 38 59 60 91 28z m256 -5 c0 -5 -4
-9 -10 -9 -5 0 -10 7 -10 16 0 8 5 12 10 9 6 -3 10 -10 10 -16z m440 12 c0 -6
-4 -12 -8 -15 -5 -3 -9 1 -9 9 0 8 4 15 9 15 4 0 8 -4 8 -9z m463 -79 c5 -6
22 -19 38 -28 34 -17 77 -8 111 23 11 10 18 12 18 4 0 -6 -15 -20 -32 -32 -69
-42 -159 9 -157 89 l2 37 6 -40 c4 -22 10 -46 14 -53z m1065 66 c-33 -51 -141
-76 -184 -43 -18 14 -17 14 9 5 16 -5 43 -10 60 -10 35 0 94 32 103 55 4 8 11
15 16 15 6 0 4 -10 -4 -22z m287 2 c17 -19 17 -20 -9 -30 -39 -15 -76 -12 -82
5 -16 41 58 61 91 25z m240 10 c-3 -5 -12 -10 -18 -10 -7 0 -6 4 3 10 19 12
23 12 15 0z m242 -32 c-3 -8 -6 -5 -6 6 -1 11 2 17 5 13 3 -3 4 -12 1 -19z
m-2533 -9 c-2 -4 22 -13 53 -21 32 -7 50 -14 41 -16 -22 -4 -89 14 -111 31
-17 12 -17 13 2 13 11 0 18 -3 15 -7z m-1044 -44 c-27 -28 -72 -41 -97 -26
-15 9 -13 10 15 11 35 0 92 27 92 44 0 5 3 6 7 3 3 -4 -4 -18 -17 -32z m49 1
c-14 -30 -60 -61 -106 -71 -55 -11 -144 40 -143 82 1 4 8 -1 18 -12 31 -37 66
-55 107 -55 47 0 101 30 117 65 6 14 13 23 15 21 2 -2 -2 -15 -8 -30z m3715 5
c-20 -33 -53 -51 -92 -50 -21 0 -16 4 20 15 29 9 54 24 64 39 23 35 29 31 8
-4z m42 -16 c-28 -51 -123 -94 -142 -63 -4 6 -3 8 3 5 32 -20 143 50 143 90 0
9 3 13 7 9 4 -4 -1 -22 -11 -41z m-2854 18 c11 -13 13 -25 7 -40 -14 -39 -79
-25 -79 17 0 38 46 53 72 23z m994 -22 c-16 -31 -87 -71 -125 -71 -28 0 -86
26 -103 47 -8 11 0 9 27 -6 70 -37 152 -23 189 33 22 35 30 33 12 -3z m-1281
-21 c-34 -66 -135 -91 -202 -50 -32 19 -59 57 -49 68 3 3 6 0 6 -6 0 -23 81
-72 119 -72 44 0 97 31 119 70 22 38 28 31 7 -10z m2525 25 c0 -8 -15 -32 -33
-51 -28 -31 -42 -37 -84 -41 -28 -3 -59 -1 -68 5 -13 7 -4 8 31 5 57 -5 105
19 132 67 19 34 22 36 22 15z m-73 -30 c-20 -18 -39 -25 -65 -24 l-37 1 37 7
c20 4 47 15 60 24 34 24 37 20 5 -8z m-3057 0 c0 -2 -10 -9 -22 -15 -22 -11
-22 -10 -4 4 21 17 26 19 26 11z m2477 -85 l88 85 -87 -90 -88 -90 -85 85
c-47 46 -85 87 -85 91 0 3 38 -33 85 -80 l84 -86 88 85z m1591 62 c12 -16 17
-41 6 -29 -3 3 -18 1 -32 -4 -35 -13 -72 -3 -72 20 0 38 70 48 98 13z m-2794
9 c4 -5 -3 -7 -14 -4 -23 6 -26 13 -6 13 8 0 17 -4 20 -9z m-1408 -161 c5 0
45 35 89 78 l80 77 -80 -82 c-44 -46 -84 -83 -90 -83 -6 0 -49 39 -95 87 l-85
87 86 -82 c48 -45 90 -82 95 -82z m3674 58 c39 -38 78 -68 85 -68 8 0 22 10
32 23 11 12 46 47 79 77 42 39 36 31 -21 -28 -44 -45 -86 -82 -95 -82 -20 0
-170 150 -169 170 0 10 3 9 9 -5 4 -11 40 -50 80 -87z m-3590 87 c0 -2 -13
-11 -30 -20 -38 -19 -40 -11 -2 9 31 17 32 18 32 11z m1156 -155 c7 0 36 24
66 53 29 29 67 63 83 77 17 13 -10 -16 -58 -65 l-88 -89 -84 84 c-47 47 -85
88 -85 91 0 4 35 -29 77 -72 42 -44 82 -79 89 -79z m-1546 130 c28 -28 16 -50
-30 -50 -68 0 -88 20 -54 54 21 22 60 20 84 -4z m1803 13 c-7 -2 -19 -2 -25 0
-7 3 -2 5 12 5 14 0 19 -2 13 -5z m-1937 -20 c-8 -28 10 -93 31 -109 33 -26
61 -27 105 -4 43 22 43 22 22 0 -68 -70 -194 7 -170 104 3 14 9 26 12 26 3 0
3 -8 0 -17z m1937 0 c-7 -2 -19 -2 -25 0 -7 3 -2 5 12 5 14 0 19 -2 13 -5z
m-240 -20 c-7 -2 -19 -2 -25 0 -7 3 -2 5 12 5 14 0 19 -2 13 -5z m2510 0 c-7
-2 -19 -2 -25 0 -7 3 -2 5 12 5 14 0 19 -2 13 -5z m294 -15 c-3 -8 -6 -5 -6 6
-1 11 2 17 5 13 3 -3 4 -12 1 -19z m173 -28 c-14 -26 -42 -40 -77 -39 -27 1
-27 1 6 9 18 4 43 17 54 29 27 26 31 26 17 1z m43 -11 c-24 -40 -72 -69 -114
-68 -31 1 -30 2 14 11 37 8 55 19 80 49 39 47 44 49 20 8z m-1999 -1 c13 -22
7 -27 -38 -35 -45 -7 -70 10 -55 39 13 24 77 22 93 -4z m-138 -39 c1 -31 -2
-45 -7 -37 -14 21 -10 89 5 88 1 0 1 -23 2 -51z m-2542 -44 c17 -7 42 -11 56
-10 14 2 30 4 37 4 7 1 29 16 50 34 32 27 35 28 22 8 -19 -31 -75 -61 -112
-61 -57 0 -137 55 -137 94 0 6 12 -4 27 -23 14 -18 40 -39 57 -46z m2003 40
c24 -21 26 -26 13 -35 -8 -6 -33 -9 -55 -8 -33 3 -41 7 -43 26 -2 16 3 25 20
31 33 14 34 14 65 -14z m-593 -7 c19 -27 7 -38 -44 -38 -46 0 -63 15 -47 41
17 27 71 25 91 -3z m-684 -18 c11 -11 20 -24 20 -29 0 -11 -45 -21 -80 -17
-31 3 -39 35 -14 53 25 19 51 16 74 -7z m2514 -8 c10 -18 10 -21 -1 -23 -5 -1
-19 -5 -32 -10 -47 -19 -81 16 -48 50 16 16 69 6 81 -17z m-2642 -54 c2 -21 3
-38 1 -38 -11 0 -22 56 -16 78 7 28 9 23 15 -40z m1280 22 c2 -22 0 -36 -3
-32 -11 10 -15 72 -5 72 2 0 6 -18 8 -40z m842 16 c-9 -24 -51 -46 -86 -45
l-33 1 34 8 c18 4 45 17 60 28 32 25 32 25 25 8z m283 8 c-3 -3 -12 -4 -19 -1
-8 3 -5 6 6 6 11 1 17 -2 13 -5z m-249 -29 c-16 -36 -68 -65 -116 -65 -42 0
-92 17 -92 31 0 4 12 1 28 -7 15 -7 39 -14 54 -14 44 0 104 29 116 56 7 13 14
24 17 24 2 0 -1 -11 -7 -25z m-1478 -2 c0 -9 10 -28 23 -42 l22 -26 -27 23
c-27 24 -43 62 -27 62 5 0 9 -8 9 -17z m1310 -9 c0 -2 -9 0 -20 6 -11 6 -20
13 -20 16 0 2 9 0 20 -6 11 -6 20 -13 20 -16z m-2191 14 c-2 -2 -31 -28 -64
-58 l-60 -55 55 58 c30 31 59 57 64 57 5 0 7 -1 5 -2z m2451 -53 c-24 -25 -46
-45 -49 -45 -3 0 15 20 39 45 24 25 46 45 49 45 3 0 -15 -20 -39 -45z m130
-10 c30 -30 52 -55 49 -55 -2 0 -29 25 -59 55 -30 30 -52 55 -49 55 2 0 29
-25 59 -55z m-943 9 c-20 -17 -39 -24 -65 -23 l-37 1 35 7 c39 8 80 31 80 45
0 5 3 6 8 2 4 -4 -6 -19 -21 -32z m58 6 c-34 -67 -135 -91 -202 -50 -45 27
-42 35 4 10 68 -36 148 -17 189 45 23 34 28 32 9 -5z m1013 5 c-3 -3 -9 2 -12
12 -6 14 -5 15 5 6 7 -7 10 -15 7 -18z m-1620 -10 c-18 -39 -68 -65 -125 -65
-40 0 -55 5 -83 30 l-35 31 42 -27 c36 -22 50 -25 95 -22 45 4 56 10 83 41 36
44 38 45 23 12z m-1311 -2 c0 -8 -6 -9 -19 -2 -10 5 -18 11 -18 12 0 2 8 3 18
3 10 0 19 -6 19 -13z m1254 -3 c-16 -14 -37 -20 -65 -19 l-41 2 43 6 c23 4 48
13 54 19 7 7 17 12 23 12 5 -1 -1 -10 -14 -20z m1894 -17 c-29 -48 -64 -68
-122 -68 -30 0 -58 6 -65 13 -11 11 -8 11 15 3 16 -6 37 -11 49 -11 36 0 90
33 111 67 11 19 22 32 24 29 3 -2 -3 -17 -12 -33z m-2557 5 c-28 -42 -99 -48
-143 -13 -18 15 -17 15 12 0 44 -21 64 -19 104 9 43 31 45 31 27 4z m38 -13
c-51 -78 -180 -85 -230 -14 -26 37 -19 39 18 4 48 -45 95 -52 152 -24 25 12
50 32 56 45 6 13 13 22 16 19 3 -2 -3 -16 -12 -30z m2477 20 c-8 -22 -56 -45
-90 -44 -23 0 -20 3 18 15 26 7 52 21 59 29 16 19 21 19 13 0z m-152 -12 c13
-16 12 -17 -3 -4 -17 13 -22 21 -14 21 2 0 10 -8 17 -17z m-3202 -12 c-13 -11
-26 -18 -28 -15 -7 7 21 34 36 34 10 0 8 -6 -8 -19z m76 -1 c10 -11 15 -23 12
-26 -4 -4 -10 1 -13 10 -4 10 -16 22 -28 26 -15 6 -16 9 -5 9 9 1 24 -8 34
-19z m4605 13 c-8 -4 -20 -13 -27 -22 -7 -9 -13 -11 -13 -5 0 15 22 34 40 33
13 0 13 -1 0 -6z m61 -15 l12 -23 -24 20 c-13 11 -26 21 -28 22 -2 2 3 3 12 3
9 0 22 -10 28 -22z m-2911 -34 c33 -19 65 -32 70 -29 6 3 10 1 10 -4 0 -18
-19 -13 -84 24 -35 19 -72 35 -84 35 -11 0 -48 -16 -82 -36 -48 -29 -64 -34
-73 -25 -9 10 -9 11 3 7 8 -3 40 10 70 29 30 18 67 34 82 34 15 1 54 -15 88
-35z m2473 22 c12 -8 44 -26 72 -40 27 -14 44 -26 37 -26 -8 0 -41 16 -73 35
-33 19 -70 35 -81 35 -12 0 -49 -16 -84 -35 -34 -19 -66 -35 -71 -35 -19 1
134 80 155 80 12 0 33 -6 45 -14z m-3767 -42 c35 -20 67 -40 70 -46 3 -5 -18
4 -47 22 -99 57 -89 57 -172 11 -66 -36 -76 -39 -87 -25 -11 13 -10 19 10 37
l24 22 -18 -22 c-31 -38 -9 -47 42 -17 65 38 96 54 105 54 5 0 38 -16 73 -36z
m2324 33 c0 -2 -10 -12 -22 -23 l-23 -19 19 23 c18 21 26 27 26 19z m195 -37
c39 -22 66 -40 61 -40 -4 0 -38 17 -75 37 l-67 36 -76 -42 c-57 -31 -78 -38
-84 -29 -4 7 -4 10 1 6 4 -4 40 11 79 32 39 22 76 40 81 40 6 0 42 -18 80 -40z
m850 26 c32 -23 12 -48 -37 -44 -46 3 -57 17 -33 42 20 20 45 20 70 2z m-3863
-21 c18 6 20 5 11 -5 -13 -15 -63 -5 -63 11 0 8 5 8 15 -1 8 -7 24 -9 37 -5z
m4672 5 c14 11 16 10 10 -4 -8 -20 -55 -18 -62 2 -3 11 0 11 16 1 17 -10 23
-10 36 1z m-3446 -29 c11 -6 11 -10 0 -19 -9 -7 -19 -8 -28 -2 -11 7 -12 10
-2 10 7 0 10 5 7 10 -7 12 5 13 23 1z m2330 -17 c39 -16 42 -34 5 -34 -34 0
-96 36 -88 51 7 10 26 6 83 -17z m-1388 -15 c0 -6 -4 -7 -10 -4 -5 3 -10 11
-10 16 0 6 5 7 10 4 6 -3 10 -11 10 -16z m1040 0 c9 -16 8 -25 -6 -40 -22 -25
-39 -24 -58 3 -11 15 -12 26 -5 40 13 25 55 23 69 -3z m527 -1 c-3 -8 -6 -5
-6 6 -1 11 2 17 5 13 3 -3 4 -12 1 -19z m-1369 -4 c30 -20 28 -30 -8 -43 -51
-17 -92 9 -63 41 20 22 42 23 71 2z m-1464 -2 c3 -4 2 -13 -2 -19 -5 -8 -14
-7 -30 5 l-23 18 25 2 c14 1 27 -2 30 -6z m2521 -40 c22 -12 36 -21 32 -22
-17 -1 -87 41 -87 53 0 8 2 9 8 1 4 -6 25 -21 47 -32z m-2330 12 c9 -9 14 -21
12 -28 -8 -24 -107 -18 -107 7 0 36 65 50 95 21z m660 -6 c15 -22 14 -23 -14
-32 -40 -12 -81 0 -81 23 0 25 9 31 46 31 23 0 38 -7 49 -22z m414 -15 c2 -2
0 -3 -6 -3 -6 0 -21 9 -34 21 l-24 20 30 -17 c17 -10 32 -19 34 -21z m1787 8
c-8 -15 -26 -35 -40 -44 -29 -19 -101 -33 -109 -21 -3 5 12 10 34 10 40 2 92
32 109 65 6 10 13 19 16 19 2 0 -2 -13 -10 -29z m295 19 c24 -13 25 -35 2 -37
-10 -1 -30 -5 -45 -8 -21 -6 -29 -3 -34 9 -15 40 30 61 77 36z m-341 -9 c0
-12 -63 -41 -87 -40 -10 0 0 7 22 15 22 8 44 19 49 24 12 12 16 13 16 1z
m-3449 -19 c13 -11 20 -25 17 -34 -6 -14 -17 -15 -80 -10 -38 4 -11 61 28 62
7 0 22 -8 35 -18z m501 -34 c2 -20 0 -34 -4 -32 -4 3 -8 24 -7 47 1 47 6 41
11 -15z m2009 32 c21 -17 22 -21 9 -30 -19 -12 -87 -13 -95 0 -7 12 30 50 49
50 8 0 24 -9 37 -20z m-1357 -35 c5 -29 4 -36 -3 -25 -6 8 -11 28 -11 44 0 39
6 31 14 -19z m376 41 c0 -2 -7 -7 -16 -10 -8 -3 -12 -2 -9 4 6 10 25 14 25 6z
m252 -21 c3 -13 1 -22 -3 -19 -9 5 -13 44 -5 44 2 0 6 -11 8 -25z m1136 0 c20
-13 62 -31 92 -39 30 -8 45 -15 34 -15 -31 -1 -98 24 -141 53 -21 15 -34 26
-30 26 4 0 24 -11 45 -25z m-3013 -102 c15 -13 22 -23 16 -23 -5 0 -21 14 -35
31 -18 22 -26 41 -25 67 l1 37 9 -45 c5 -28 18 -53 34 -67z m369 76 c-3 -5
-10 -7 -15 -3 -5 3 -7 10 -3 15 3 5 10 7 15 3 5 -3 7 -10 3 -15z m1066 -19 c0
-6 -11 -22 -25 -35 -31 -32 -92 -34 -126 -4 l-24 21 25 -16 c40 -26 87 -20
118 13 32 34 32 34 32 21z m599 -16 c-9 -8 -33 -17 -55 -20 l-39 -4 40 15 c22
9 44 20 49 25 5 5 12 7 15 5 3 -3 -2 -12 -10 -21z m48 -7 c-33 -51 -120 -71
-178 -41 -43 22 -32 26 21 8 56 -20 108 -7 142 35 27 33 38 32 15 -2z m402
-12 c0 -5 -4 -3 -9 5 -5 8 -9 22 -9 30 0 16 17 -16 18 -35z m1861 35 c0 -5 -2
-10 -4 -10 -3 0 -8 5 -11 10 -3 6 -1 10 4 10 6 0 11 -4 11 -10z m-4725 -30 c1
-22 -25 -60 -41 -60 -23 0 -44 41 -33 62 13 24 74 22 74 -2z m1839 -9 c-36
-61 -128 -83 -192 -46 -18 11 -32 23 -32 27 0 4 15 -1 33 -12 60 -37 157 -16
187 39 6 12 13 21 16 21 3 0 -2 -13 -12 -29z m2470 15 c-7 -19 -57 -39 -81
-33 -13 3 -11 5 7 6 14 1 36 10 50 21 30 24 31 24 24 6z m42 -20 c-27 -42
-103 -72 -141 -56 -16 7 -11 9 20 9 45 1 98 29 115 61 6 12 14 19 17 16 3 -3
-2 -17 -11 -30z m-3288 -6 c18 0 45 8 60 17 l27 17 -18 -21 c-10 -11 -30 -23
-45 -26 -30 -6 -85 14 -97 34 -5 7 2 5 16 -4 13 -9 38 -17 57 -17z m-664 -60
c48 -15 90 -5 133 33 31 27 34 28 24 9 -44 -81 -190 -81 -235 1 l-18 32 30
-31 c16 -18 46 -37 66 -44z m103 45 c-18 -16 -39 -25 -60 -24 l-32 1 34 10
c19 5 44 16 55 24 32 22 34 16 3 -11z m483 0 c47 -35 112 -34 165 2 l40 26
-24 -27 c-50 -54 -150 -55 -201 -1 -30 32 -23 32 20 0z m2027 0 c-18 -16 -39
-25 -60 -24 l-32 1 34 10 c19 5 44 16 55 24 32 22 34 16 3 -11z m-577 -82 l85
82 -79 -82 c-67 -69 -78 -85 -72 -106 9 -38 -2 -57 -35 -57 -23 0 -30 6 -35
27 -5 19 -2 30 11 39 17 13 13 20 -58 93 -42 43 -77 83 -77 87 0 5 39 -31 88
-79 l87 -87 85 83z m-1369 -103 c4 0 29 23 57 50 67 67 74 64 10 -5 -28 -30
-58 -55 -66 -55 -18 0 -172 149 -172 166 0 6 37 -26 82 -72 45 -46 85 -84 89
-84z m1897 133 c21 3 46 8 57 12 14 4 12 2 -5 -9 -36 -22 -103 -20 -131 4
l-24 20 33 -16 c21 -10 48 -14 70 -11z m617 -133 c5 0 46 35 90 78 l80 77 -80
-82 c-44 -46 -84 -83 -90 -83 -6 0 -49 39 -95 88 l-85 87 85 -82 c47 -46 90
-83 95 -83z m-2370 121 c-3 -6 -11 -11 -16 -11 -5 0 -4 6 3 14 14 16 24 13 13
-3z m-1247 -28 c-2 -9 -10 -18 -18 -20 -12 -4 -13 -3 -1 5 7 5 10 15 7 21 -4
6 -2 11 4 11 6 0 10 -8 8 -17z m2130 -34 c30 -27 20 -39 -34 -39 -51 0 -71 23
-39 46 26 19 48 17 73 -7z m2507 1 c23 -25 18 -30 -34 -36 -32 -4 -43 -1 -48
12 -4 11 1 22 12 30 26 19 49 17 70 -6z m-3784 -31 c17 -17 19 -23 8 -30 -29
-18 -99 -8 -99 15 0 38 58 48 91 15z m2504 7 c17 -12 18 -15 3 -30 -19 -19
-69 -21 -86 -4 -7 7 -8 17 -1 30 12 22 57 24 84 4z m-1368 -18 c-3 -8 -6 -5
-6 6 -1 11 2 17 5 13 3 -3 4 -12 1 -19z m-527 -6 c32 -26 18 -42 -35 -42 -55
0 -72 35 -25 53 26 10 37 8 60 -11z m2512 -4 l21 -21 -23 -9 c-31 -11 -82 -6
-87 8 -5 16 25 44 48 44 10 0 29 -10 41 -22z m-749 -33 c5 -28 4 -34 -3 -20
-8 19 -14 73 -6 64 2 -2 6 -22 9 -44z m-3041 8 c39 -35 16 -56 -44 -39 -47 14
-54 22 -38 41 16 20 59 19 82 -2z m538 -22 c0 -8 10 -26 22 -40 l22 -26 -26
25 c-15 14 -30 39 -33 55 -5 23 -4 26 4 15 6 -8 11 -21 11 -29z m1277 17 c-3
-8 -6 -5 -6 6 -1 11 2 17 5 13 3 -3 4 -12 1 -19z m696 4 c23 -25 4 -42 -44
-42 -44 0 -54 11 -39 40 14 25 61 27 83 2z m-1360 -37 c4 -27 3 -35 -3 -25 -5
8 -10 28 -10 44 0 39 6 30 13 -19z m-1281 -14 c2 -22 0 -37 -4 -35 -8 5 -11
74 -4 74 2 0 6 -18 8 -39z m2112 15 c-11 -29 -83 -46 -114 -26 -11 7 -7 9 15
5 26 -5 42 0 102 34 1 0 0 -5 -3 -13z m2501 -6 c-11 -11 -36 -22 -55 -25 l-35
-5 40 15 c22 9 44 20 49 25 6 6 12 10 15 10 3 0 -3 -9 -14 -20z m-3494 -7 c13
-16 12 -17 -3 -4 -10 7 -18 15 -18 17 0 8 8 3 21 -13z m1023 -14 c-49 -54
-143 -64 -187 -20 l-22 21 40 -21 c50 -26 104 -20 148 15 39 31 46 33 21 5z
m363 -11 c-3 -7 -5 -2 -5 12 0 14 2 19 5 13 2 -7 2 -19 0 -25z m2157 19 c-7
-20 -78 -57 -105 -56 -16 0 -8 5 22 14 25 8 54 24 64 35 21 23 26 25 19 7z
m-3839 -16 c-10 -17 -73 -33 -91 -23 -12 7 -9 9 15 10 17 0 38 5 48 11 23 13
36 14 28 2z m49 -6 c-9 -22 -86 -65 -118 -65 -34 0 -87 22 -105 43 -17 22 -3
22 20 1 44 -40 137 -34 181 13 25 27 30 29 22 8z m2466 9 c0 -6 -65 -34 -81
-34 -19 0 -2 13 34 26 39 14 47 16 47 8z m-2179 -21 c13 -16 12 -17 -3 -4 -10
7 -18 15 -18 17 0 8 8 3 21 -13z m283 -3 c-11 -11 -38 -23 -60 -26 l-39 -5 35
14 c19 7 44 18 55 25 29 17 32 15 9 -8z m1930 -1 c-34 -38 -111 -60 -141 -41
-7 4 7 8 33 8 31 1 55 9 82 28 44 31 51 33 26 5z m626 -9 c-28 -39 -70 -60
-117 -59 l-38 2 40 6 c49 9 72 21 104 55 33 35 37 33 11 -4z m-2514 -1 c-39
-56 -116 -75 -177 -43 -43 22 -31 27 19 7 36 -13 49 -14 83 -4 22 7 50 23 61
37 27 30 34 31 14 3z m2463 6 c-8 -9 -33 -18 -55 -20 l-39 -5 35 11 c19 6 39
15 45 20 5 5 14 9 19 9 6 0 3 -7 -5 -15z m776 -6 c11 -16 1 -19 -13 -3 -7 8
-8 14 -3 14 5 0 13 -5 16 -11z m-4665 -69 c38 -10 47 -9 94 14 l51 25 -30 -25
c-38 -30 -84 -39 -128 -25 -34 12 -87 55 -87 72 0 4 13 -5 28 -21 16 -16 48
-34 72 -40z m51 40 c17 5 38 15 47 22 13 10 13 8 -1 -9 -10 -11 -30 -23 -45
-26 -28 -5 -85 13 -96 31 -3 5 10 2 30 -8 26 -14 43 -16 65 -10z m2554 11
c-22 -21 -81 -39 -70 -21 3 5 14 10 24 10 9 0 26 7 37 15 27 20 32 18 9 -4z
m-1510 -41 c39 -22 76 -36 80 -32 5 4 5 1 1 -6 -6 -9 -27 -2 -84 29 -85 46
-89 49 -77 49 4 0 40 -18 80 -40z m1549 19 c-23 -26 -74 -49 -106 -49 -13 1
-36 7 -53 16 -25 12 -26 13 -5 8 63 -15 145 3 165 36 3 5 9 10 12 10 3 0 -2
-10 -13 -21z m974 -25 c34 -19 62 -37 62 -40 0 -4 -150 74 -160 84 -11 12 39
-12 98 -44z m-2618 32 c0 -2 -7 -7 -16 -10 -8 -3 -12 -2 -9 4 6 10 25 14 25 6z
m2505 -4 c-14 -13 -131 -77 -123 -67 12 12 112 73 123 74 5 1 5 -2 0 -7z
m-2545 -16 c0 -2 -20 -16 -45 -30 -25 -13 -43 -21 -40 -15 4 5 23 18 43 29 41
21 42 22 42 16z m1355 -27 c30 -17 55 -33 55 -36 0 -3 -25 9 -55 26 -63 36
-75 37 -113 15 l-27 -16 25 21 c34 28 51 26 115 -10z m2321 -16 c-10 -11 -37
-12 -30 -2 3 5 12 9 21 9 9 0 13 -3 9 -7z m29 -31 c0 -9 -9 -23 -19 -31 -17
-12 -21 -12 -32 4 -8 10 -14 23 -14 29 0 6 7 0 16 -13 l17 -24 13 24 c7 13 10
28 7 34 -4 5 -2 6 3 2 5 -5 9 -16 9 -25z m-3177 -1 c3 -8 -1 -12 -9 -9 -7 2
-15 10 -17 17 -3 8 1 12 9 9 7 -2 15 -10 17 -17z m-1280 -4 c15 -10 16 -40 0
-35 -6 2 -18 14 -25 25 -12 17 -12 21 -1 19 7 -1 19 -5 26 -9z m2199 7 c-3 -3
-12 -4 -19 -1 -8 3 -5 6 6 6 11 1 17 -2 13 -5z m-732 -12 c16 -11 41 -47 28
-39 -6 4 -15 3 -18 -3 -4 -6 -21 -8 -43 -4 -46 8 -45 8 -37 33 6 21 49 29 70
13z m1375 -7 c-7 -8 -16 -12 -21 -9 -16 9 -10 20 12 21 17 2 18 -1 9 -12z
m1144 -1 c19 -19 20 -31 3 -31 -7 0 -24 -3 -38 -6 -15 -4 -33 -1 -43 6 -17 13
-17 14 -1 30 21 21 59 22 79 1z m-3786 -26 c16 -14 15 -35 -2 -41 -27 -10 -86
12 -86 33 0 29 54 34 88 8z m1058 -9 c4 -8 1 -8 -14 0 -12 6 -24 16 -28 22 -4
8 -1 8 14 0 12 -6 24 -16 28 -22z m1452 8 c26 -20 12 -33 -38 -36 -45 -2 -50
0 -50 19 0 35 52 45 88 17z m643 4 c30 -24 21 -34 -32 -35 -46 -1 -59 13 -34
38 21 21 38 20 66 -3z m-3375 -39 c-4 -3 -14 2 -24 12 -16 18 -16 18 6 6 13
-6 21 -14 18 -18z m2104 6 c27 -30 26 -33 -17 -32 -64 2 -73 4 -73 17 0 39 58
49 90 15z m-2012 -53 c-3 -3 -9 2 -12 12 -6 14 -5 15 5 6 7 -7 10 -15 7 -18z
m1142 4 c0 -5 4 -8 9 -5 6 4 9 -33 3 -54 -4 -11 -57 -5 -57 7 0 6 -3 15 -8 19
-9 9 22 44 40 44 7 0 13 -5 13 -11z m286 -25 c-11 -8 -34 -14 -50 -13 l-31 1
33 8 c19 4 39 13 45 19 6 6 13 8 16 5 3 -3 -3 -12 -13 -20z m-925 6 c10 -6 19
-20 19 -32 0 -19 -4 -20 -42 -14 -52 8 -66 20 -48 41 14 17 43 19 71 5z m3434
-3 c-24 -17 -65 -28 -65 -18 0 4 15 12 33 18 46 15 54 15 32 0z m46 -21 c-22
-24 -106 -54 -117 -43 -4 3 7 9 22 12 41 8 95 37 101 53 3 7 8 10 11 7 3 -3
-5 -16 -17 -29z m-2526 -11 c-42 -34 -87 -41 -140 -20 -25 9 -45 21 -45 26 0
5 13 3 30 -6 46 -24 114 -20 147 9 15 13 30 22 33 20 2 -3 -9 -16 -25 -29z
m1852 10 c-16 -14 -40 -25 -55 -25 -24 1 -23 2 12 15 21 7 43 18 49 24 6 6 13
11 17 11 3 0 -8 -12 -23 -25z m-3166 -5 c-13 -12 -37 -20 -55 -19 l-31 1 30 7
c17 4 40 13 50 19 30 17 33 14 6 -8z m2510 0 c-13 -12 -37 -20 -55 -19 l-31 1
30 7 c17 4 40 13 50 19 30 17 33 14 6 -8z m-2583 -48 c33 -3 59 1 80 12 18 9
32 14 32 12 0 -3 -13 -12 -30 -21 -60 -31 -156 -11 -181 38 -10 19 -7 18 19
-7 23 -21 44 -30 80 -34z m1982 43 c0 -11 -66 -45 -85 -44 -12 0 -1 9 30 24
60 28 55 26 55 20z m1310 -5 c0 -21 -65 -50 -110 -49 l-45 2 47 6 c26 4 60 17
75 28 33 26 33 26 33 13z m-677 -22 c-29 -29 -119 -37 -148 -13 -20 16 -20 16
2 6 33 -16 84 -13 123 8 46 25 48 25 23 -1z m-2985 -18 l16 -25 -25 23 c-30
27 -55 28 -83 5 l-21 -18 19 23 c26 30 73 27 94 -8z m2368 2 c-38 -43 -146
-53 -176 -17 -10 12 -5 11 27 -1 46 -18 106 -7 139 25 24 23 33 18 10 -7z
m2247 21 c-13 -2 -30 -14 -38 -26 -12 -17 -15 -18 -15 -5 0 20 27 38 55 36 17
-1 17 -1 -2 -5z m-3931 -28 c3 -13 1 -22 -3 -19 -9 5 -13 44 -5 44 2 0 6 -11
8 -25z m983 -125 c5 0 46 35 90 78 l80 77 -80 -82 c-44 -46 -84 -83 -90 -83
-6 0 -46 37 -90 83 l-80 82 80 -77 c44 -43 85 -78 90 -78z m2590 60 c-38 -38
-76 -70 -85 -69 -10 0 -9 3 5 9 11 4 47 36 80 69 33 34 62 61 64 61 3 0 -26
-31 -64 -70z m-3838 -60 l38 35 -38 -40 -37 -40 -83 85 -82 85 82 -80 83 -79
37 34z m2383 55 c35 -36 62 -65 59 -65 -2 0 -34 29 -69 65 -35 36 -62 65 -59
65 2 0 34 -29 69 -65z m250 52 c0 -2 -12 -14 -27 -28 l-28 -24 24 28 c23 25
31 32 31 24z m1021 -14 c13 -16 12 -17 -3 -4 -17 13 -22 21 -14 21 2 0 10 -8
17 -17z m-4091 -10 c0 -1 -8 -7 -19 -12 -13 -7 -23 -7 -35 2 -14 10 -11 12 19
12 19 0 35 -1 35 -2z m850 -8 c-9 -8 -31 -17 -50 -20 -33 -5 -33 -5 10 14 57
24 57 24 40 6z m3815 5 c-3 -5 -12 -10 -18 -10 -7 0 -6 4 3 10 19 12 23 12 15
0z m-525 -35 c13 -14 21 -25 18 -25 -2 0 -15 11 -28 25 -13 14 -21 25 -18 25
2 0 15 -11 28 -25z m-3423 -2 c35 -23 110 -22 148 3 17 11 26 13 21 5 -12 -19
-70 -41 -107 -41 -27 0 -99 33 -99 46 0 8 11 4 37 -13z m713 -11 c38 -31 16
-43 -57 -34 -19 3 -16 29 5 41 23 14 27 14 52 -7z m2494 12 c9 -4 21 -14 26
-24 8 -15 3 -17 -37 -19 -49 -1 -70 13 -51 36 11 14 37 17 62 7z m-1261 -42
c29 -25 19 -33 -35 -30 -59 3 -71 23 -29 45 26 12 34 10 64 -15z m327 25 c0
-2 -12 -14 -27 -28 l-28 -24 24 28 c23 25 31 32 31 24z m274 -23 c23 -22 14
-30 -38 -33 -39 -2 -46 1 -46 17 0 10 3 22 7 25 12 13 62 7 77 -9z m-349 -42
c-3 -3 -11 0 -18 7 -9 10 -8 11 6 5 10 -3 15 -9 12 -12z m-914 -13 c14 -28 -3
-40 -46 -32 -38 7 -49 17 -42 37 10 25 74 21 88 -5z m526 -21 c-3 -8 -6 -5 -6
6 -1 11 2 17 5 13 3 -3 4 -12 1 -19z m1447 -9 c-8 -14 -74 -42 -82 -35 -2 3 4
8 14 12 10 3 30 12 44 19 31 18 33 18 24 4z m-2523 -13 c-6 -8 -25 -16 -41
-18 -43 -6 -18 9 49 31 2 0 -2 -5 -8 -13z m1249 -11 c0 -11 -61 -35 -87 -34
-25 1 -25 2 7 8 19 4 44 12 55 19 23 13 25 14 25 7z m581 -15 c-13 -12 -37
-20 -55 -19 l-31 1 30 7 c17 4 40 13 50 19 30 17 33 14 6 -8z m718 3 c-18 -21
-72 -43 -101 -42 -13 0 -2 7 26 14 27 8 56 21 65 29 20 21 27 20 10 -1z m569
1 c32 -22 27 -31 -18 -36 -42 -4 -47 1 -30 33 13 23 19 24 48 3z m-3203 -28
c17 -3 45 -2 63 3 18 6 30 6 27 1 -19 -30 -129 -17 -157 18 -12 16 -11 16 12
1 14 -9 39 -19 55 -23z m1347 -8 c-7 -7 -12 -8 -12 -2 0 14 12 26 19 19 2 -3
-1 -11 -7 -17z m595 -3 c-23 -20 -38 -25 -80 -24 l-52 2 50 6 c28 3 61 14 75
24 36 25 40 20 7 -8z m-3233 -7 c21 -30 20 -37 -6 -34 -64 7 -93 28 -71 49 15
16 62 6 77 -15z m1937 -8 c-13 -12 -37 -20 -55 -19 l-31 1 30 7 c17 4 40 13
50 19 30 17 33 14 6 -8z m676 4 c-15 -15 -86 -20 -113 -9 -27 11 -25 12 22 7
29 -2 60 0 70 6 19 11 33 8 21 -4z m-2217 -19 c42 -22 37 -28 -5 -8 -33 16
-37 16 -70 0 -41 -20 -47 -14 -7 7 35 19 46 19 82 1z m2500 5 c11 -8 8 -9 -12
-4 -14 3 -37 1 -50 -6 -22 -11 -22 -10 -4 4 23 18 45 20 66 6z m-1975 -22
c-11 -6 -30 -20 -43 -31 -17 -16 -25 -18 -34 -9 -9 9 -7 12 11 12 12 0 20 4
17 9 -4 5 6 14 21 19 38 14 53 14 28 0z m1036 -8 c-29 -25 -117 -28 -147 -5
-18 14 -17 14 9 5 40 -14 98 -12 127 5 35 20 39 18 11 -5z m2139 16 c0 -2 -7
-7 -16 -10 -8 -3 -12 -2 -9 4 6 10 25 14 25 6z m-3372 -49 c11 -16 38 -42 58
-58 20 -16 32 -29 27 -29 -17 0 -87 67 -107 101 -20 36 -12 31 22 -14z m856
34 c-17 -4 -37 -11 -45 -15 -8 -4 -5 0 5 8 11 9 31 16 45 15 24 -1 24 -2 -5
-8z m1226 4 c0 -2 -13 -11 -30 -20 -38 -19 -40 -11 -2 9 31 17 32 18 32 11z
m-2943 -27 c-3 -8 -6 -5 -6 6 -1 11 2 17 5 13 3 -3 4 -12 1 -19z m633 -14 c0
-2 -13 2 -30 11 -16 9 -30 18 -30 21 0 2 14 -2 30 -11 17 -9 30 -18 30 -21z
m341 -19 c5 4 9 2 9 -4 0 -23 -21 -19 -54 10 -20 17 -36 36 -36 41 0 6 16 -4
36 -21 19 -17 39 -29 45 -26z m2169 19 c0 -2 -13 2 -30 11 -16 9 -30 18 -30
21 0 2 14 -2 30 -11 17 -9 30 -18 30 -21z m1185 18 c-3 -3 -11 0 -18 7 -9 10
-8 11 6 5 10 -3 15 -9 12 -12z m-2495 -28 c0 -2 -13 2 -30 11 -16 9 -30 18
-30 21 0 2 14 -2 30 -11 17 -9 30 -18 30 -21z m2340 31 c0 -2 -10 -9 -22 -15
-22 -11 -22 -10 -4 4 21 17 26 19 26 11z m490 -14 c0 -9 -15 -15 -62 -26 -17
-4 39 28 60 34 1 1 2 -3 2 -8z m-1400 -6 c0 -2 -6 -8 -13 -14 -10 -8 -14 -7
-14 2 0 8 6 14 14 14 7 0 13 -1 13 -2z m1140 -19 c-7 -7 -13 -7 -20 0 -6 6 -3
10 10 10 13 0 16 -4 10 -10z m-2825 -14 c-3 -3 -11 0 -18 7 -9 10 -8 11 6 5
10 -3 15 -9 12 -12z m290 0 c-3 -3 -11 0 -18 7 -9 10 -8 11 6 5 10 -3 15 -9
12 -12z m1586 1 c13 -16 12 -17 -3 -4 -10 7 -18 15 -18 17 0 8 8 3 21 -13z
m1243 6 c-6 -11 -66 -39 -81 -39 -6 1 74 46 85 49 2 1 0 -4 -4 -10z m-4550
-14 c-10 -8 -30 -14 -44 -14 -22 0 -21 2 10 13 48 18 57 19 34 1z m1022 -16
c24 -26 13 -33 -41 -25 -35 6 -45 11 -45 26 0 33 56 33 86 -1z m1327 16 c-3
-9 -8 -14 -10 -11 -3 3 -2 9 2 15 9 16 15 13 8 -4z m771 -7 c24 11 25 10 14
-7 -6 -10 -18 -18 -27 -17 -21 1 -40 19 -34 30 3 4 9 2 14 -5 6 -10 13 -10 33
-1z m404 0 c25 -25 13 -35 -35 -31 -55 4 -60 7 -43 28 15 18 61 20 78 3z
m-3606 -43 c24 -8 34 -14 23 -14 -29 -1 -105 36 -105 50 0 8 7 6 19 -5 11 -10
39 -24 63 -31z m2138 23 c0 -5 -9 -4 -20 2 -11 6 -20 12 -20 14 0 2 9 2 20 -1
11 -3 20 -9 20 -15z m-1669 -9 c30 -30 12 -44 -40 -28 -44 13 -48 18 -29 37
18 18 46 14 69 -9z m1858 -3 c27 -29 16 -38 -36 -30 -45 7 -59 24 -36 42 25
18 47 15 72 -12z m1893 -8 l22 -22 -24 -6 c-60 -14 -105 14 -62 39 26 16 40
13 64 -11z m-4132 2 c-8 -5 -22 -9 -30 -9 -10 0 -8 3 5 9 27 12 43 12 25 0z
m2020 -27 c0 -7 -39 17 -46 28 -3 6 5 3 20 -6 14 -10 26 -19 26 -22z m-1773
-35 c-3 -8 -6 -5 -6 6 -1 11 2 17 5 13 3 -3 4 -12 1 -19z m2953 18 c0 -3 -4
-8 -10 -11 -5 -3 -10 -1 -10 4 0 6 5 11 10 11 6 0 10 -2 10 -4z m-1093 -28
c-3 -8 -6 -5 -6 6 -1 11 2 17 5 13 3 -3 4 -12 1 -19z m-733 -14 c33 -32 8 -49
-48 -32 -34 11 -45 26 -29 41 12 13 62 7 77 -9z m2157 -4 c-13 -11 -35 -20
-50 -19 -23 1 -22 2 9 11 19 5 39 14 45 19 5 5 11 9 15 9 3 -1 -6 -10 -19 -20z
m-2511 -5 c-14 -8 -36 -14 -50 -14 -21 1 -19 2 8 9 18 4 36 10 39 14 4 3 11 6
17 6 6 -1 0 -7 -14 -15z m-610 -11 c0 -6 -65 -34 -77 -33 -4 0 10 9 32 19 48
22 45 21 45 14z m578 -31 c37 4 51 3 42 -3 -8 -5 -38 -10 -67 -10 -42 0 -57 5
-80 25 l-28 26 38 -22 c31 -18 48 -21 95 -16z m249 -10 c-3 -10 -5 -2 -5 17 0
19 2 27 5 18 2 -10 2 -26 0 -35z m1033 42 c0 -8 -59 -35 -77 -34 -10 0 2 8 27
19 25 10 46 18 48 19 1 1 2 -1 2 -4z m344 -17 c21 -30 13 -36 -36 -31 -47 6
-63 20 -46 40 17 21 65 16 82 -9z m966 7 c0 -11 -61 -35 -87 -34 l-28 1 30 7
c17 4 40 13 50 19 21 12 35 15 35 7z m590 0 c0 -10 -60 -35 -82 -35 -17 1 -13
4 15 15 21 7 41 16 44 19 7 7 23 8 23 1z m-3828 -55 c16 0 39 5 51 11 21 10
21 10 3 -5 -37 -29 -132 -12 -167 31 -7 8 9 3 36 -11 26 -14 61 -26 77 -26z
m1930 8 c-15 -15 -106 -22 -128 -10 -15 9 -8 10 31 6 32 -3 59 0 75 9 28 15
40 13 22 -5z m1913 2 c-10 -11 -23 -20 -29 -20 -6 0 0 9 14 20 32 25 38 25 15
0z m-3326 -37 c2 -2 2 -5 -1 -8 -2 -3 -18 10 -34 28 l-29 32 30 -25 c17 -14
32 -26 34 -27z m1261 -58 c47 -47 82 -85 80 -85 -3 0 -43 38 -90 85 -47 47
-82 85 -80 85 3 0 43 -38 90 -85z m357 63 c-3 -8 -6 -5 -6 6 -1 11 2 17 5 13
3 -3 4 -12 1 -19z m928 -38 c33 -33 57 -60 54 -60 -2 0 -31 27 -64 60 -33 33
-57 60 -54 60 2 0 31 -27 64 -60z m735 50 c0 -5 -15 -9 -32 -9 l-33 1 30 8
c17 4 31 8 33 9 1 0 2 -3 2 -9z m-530 -3 c0 -2 -17 -19 -37 -38 l-38 -34 34
38 c33 34 41 42 41 34z m-2520 -11 c0 -2 -8 -10 -17 -17 -16 -13 -17 -12 -4 4
13 16 21 21 21 13z m290 -21 c-14 -8 -36 -14 -50 -14 -21 1 -19 2 8 9 18 4 36
10 39 14 4 3 11 6 17 6 6 -1 0 -7 -14 -15z m-448 -52 l38 -37 27 25 28 24 -24
-27 c-14 -16 -27 -28 -30 -28 -11 1 -96 80 -86 80 5 0 26 -17 47 -37z m407 9
c25 3 55 8 66 12 16 6 17 6 5 -3 -8 -6 -32 -16 -53 -21 -31 -9 -45 -7 -82 9
-25 11 -45 22 -45 26 0 3 14 -2 31 -11 21 -10 48 -14 78 -12z m1285 13 c-10
-8 -32 -14 -49 -14 l-30 1 33 8 c18 4 36 10 39 14 4 3 11 6 17 6 5 0 1 -7 -10
-15z m-1909 -21 c20 -20 14 -39 -11 -38 -39 3 -64 17 -64 35 0 24 51 26 75 3z
m2155 6 c0 -12 -8 -12 -35 0 -18 8 -17 9 8 9 15 1 27 -3 27 -9z m1616 -21 c13
-15 15 -22 6 -28 -19 -12 -80 0 -87 17 -13 34 51 44 81 11z m-2538 -16 c21
-28 14 -36 -29 -30 -52 7 -67 20 -49 42 16 19 59 12 78 -12z m690 10 c-20 -19
-111 -24 -128 -7 -8 8 5 9 43 6 30 -2 63 1 73 7 27 15 31 13 12 -6z m582 -3
c27 -27 16 -44 -24 -36 -17 4 -37 7 -43 8 -19 2 -16 25 5 37 26 15 40 13 62
-9z m285 0 c-10 -11 -22 -20 -28 -20 -5 0 1 9 14 20 31 25 37 25 14 0z m297
-42 c21 -21 21 -22 2 -29 -10 -4 -30 -5 -44 -2 -49 9 -52 11 -40 33 14 27 54
26 82 -2z m-715 -20 c-3 -7 -5 -2 -5 12 0 14 2 19 5 13 2 -7 2 -19 0 -25z
m-1280 -10 c-3 -7 -5 -2 -5 12 0 14 2 19 5 13 2 -7 2 -19 0 -25z m-1083 -33
c-10 -8 -30 -14 -44 -14 -22 0 -21 2 10 13 48 18 57 19 34 1z m2943 -17 c-3
-7 -5 -2 -5 12 0 14 2 19 5 13 2 -7 2 -19 0 -25z m838 12 c-10 -11 -30 -20
-44 -19 -24 1 -24 1 6 10 18 5 35 14 38 19 3 6 9 10 12 10 3 0 -2 -9 -12 -20z
m-1245 -5 c0 -8 -59 -35 -77 -34 -10 0 2 8 27 19 25 10 46 18 48 19 1 1 2 -1
2 -4z m-2583 -36 c37 -1 43 -3 23 -8 -14 -4 -32 -7 -40 -5 -8 1 -22 3 -30 3
-8 1 -26 11 -40 22 l-25 20 32 -15 c18 -9 54 -16 80 -17z m1268 16 c-16 -8
-37 -14 -45 -14 -8 0 1 7 20 14 46 18 64 17 25 0z m2578 -20 c-12 -8 -37 -18
-55 -20 -30 -5 -29 -4 12 14 56 23 71 26 43 6z m-4668 -5 c3 -6 -1 -7 -9 -4
-18 7 -21 14 -7 14 6 0 13 -4 16 -10z m3425 5 c0 -13 -63 -35 -97 -34 l-38 2
45 6 c25 4 54 12 65 19 23 13 25 14 25 7z m550 -1 c0 -8 -71 -36 -78 -30 -2 3
4 8 14 12 10 3 28 9 39 14 26 11 25 11 25 4z m-1922 -19 c23 0 42 -3 42 -7 0
-15 -95 -8 -115 8 -19 16 -19 16 5 8 14 -5 44 -9 68 -9z m-1640 -8 l22 -13
-31 -23 c-18 -13 -29 -19 -25 -13 3 5 -1 13 -9 16 -13 4 -14 10 -5 26 12 23
17 24 48 7z m3592 -2 c0 -13 -68 -45 -95 -44 -25 1 -22 3 19 14 27 8 53 18 59
24 12 12 17 14 17 6z m-1070 -13 c0 -5 -11 -14 -25 -20 -29 -13 -31 -10 -9 12
17 17 34 21 34 8z m-230 -22 c6 -11 8 -20 6 -20 -3 0 -10 9 -16 20 -6 11 -8
20 -6 20 3 0 10 -9 16 -20z m-1041 -3 c-31 -22 -59 -35 -59 -27 0 6 10 15 23
20 21 8 45 13 36 7z m3096 -17 c3 -6 -1 -7 -9 -4 -18 7 -21 14 -7 14 6 0 13
-4 16 -10z m-3264 -17 c13 -16 12 -17 -3 -4 -10 7 -18 15 -18 17 0 8 8 3 21
-13z m28 -86 c14 -9 23 -19 20 -21 -8 -8 -76 51 -100 87 -19 27 -17 26 17 -9
21 -22 50 -48 63 -57z m-1189 73 c8 -5 11 -12 7 -16 -4 -4 -15 0 -24 9 -18 18
-8 23 17 7z m1233 -43 c-6 -10 -45 14 -51 31 -2 7 9 5 26 -5 17 -10 28 -21 25
-26z m-1042 12 c38 -38 11 -56 -43 -29 -29 14 -37 35 -15 43 24 10 37 7 58
-14z m2510 0 c28 -28 12 -44 -34 -35 -23 4 -37 13 -40 26 -9 34 42 41 74 9z
m-2711 -36 c0 -8 -38 17 -51 33 -9 11 -2 9 19 -6 17 -13 32 -25 32 -27z m3954
18 c21 -23 10 -31 -38 -27 -43 4 -51 9 -43 31 9 21 60 19 81 -4z m-2526 -7
c32 -22 28 -44 -8 -44 -16 0 -30 5 -30 11 0 5 -4 8 -8 5 -14 -9 -35 12 -29 28
8 20 46 21 75 0z m866 -6 c16 -26 -7 -47 -34 -30 -11 6 -27 12 -35 12 -15 0
-20 21 -8 34 13 13 66 1 77 -16z m-2227 -30 c-3 -7 -5 -2 -5 12 0 14 2 19 5
13 2 -7 2 -19 0 -25z m2090 -30 c-2 -13 -4 -5 -4 17 -1 22 1 32 4 23 2 -10 2
-28 0 -40z m420 20 c-3 -8 -6 -5 -6 6 -1 11 2 17 5 13 3 -3 4 -12 1 -19z
m-1280 -30 c-3 -7 -5 -2 -5 12 0 14 2 19 5 13 2 -7 2 -19 0 -25z m1899 14 c6
-4 16 -16 22 -27 9 -19 8 -21 -16 -19 -15 1 -37 2 -48 3 -22 1 -39 26 -28 42
6 11 54 12 70 1z m-3395 -23 c19 -19 19 -23 7 -36 -13 -13 -19 -11 -51 10 -27
18 -33 27 -24 36 17 17 45 13 68 -10z m1039 1 c12 -12 18 -25 16 -29 -10 -15
-52 -9 -77 10 -20 16 -22 20 -9 29 24 15 48 12 70 -10z m3511 -6 c6 -8 9 -21
5 -29 -4 -12 -10 -14 -25 -5 -11 5 -29 10 -40 10 -14 0 -21 6 -21 19 0 31 56
34 81 5z m-4684 -61 c-3 -10 -5 -2 -5 17 0 19 2 27 5 18 2 -10 2 -26 0 -35z
m3033 37 c-8 -5 -24 -9 -35 -9 -16 1 -16 2 5 9 35 11 48 11 30 0z m1260 -5
c-14 -8 -34 -14 -45 -14 -13 0 -7 5 15 13 47 18 61 18 30 1z m-3855 -23 c17
-6 44 -13 60 -15 26 -4 25 -4 -8 -6 -42 -1 -97 22 -97 42 0 8 3 8 8 1 4 -5 21
-15 37 -22z m1341 13 c-11 -8 -29 -15 -40 -14 -15 0 -10 4 14 13 46 18 48 18
26 1z m860 0 c-11 -8 -29 -15 -40 -14 -15 0 -11 4 14 14 45 17 49 17 26 0z
m-1599 -27 c-3 -7 -5 -2 -5 12 0 14 2 19 5 13 2 -7 2 -19 0 -25z m2036 11 c-7
-7 -36 -13 -65 -15 l-53 -3 53 8 c29 5 56 12 59 15 4 3 9 6 12 6 3 0 0 -5 -6
-11z m1245 -14 c-14 -14 -68 -23 -74 -13 -4 6 -3 9 2 6 5 -3 18 -2 29 3 23 9
51 12 43 4z m-3828 -148 c13 -5 13 -6 0 -6 -9 -1 -49 34 -90 76 l-75 78 75
-71 c41 -40 82 -74 90 -77z m1210 128 l55 -15 -50 5 c-27 3 -54 10 -59 15 -12
12 -13 12 54 -5z m913 -8 c-21 -6 -45 -6 -65 0 -29 9 -26 10 32 10 58 -1 61
-2 33 -10z m933 -12 c-11 -8 -29 -15 -40 -14 -15 0 -10 4 14 13 46 18 48 18
26 1z m-1826 -108 l45 -4 -45 -1 c-44 -2 -48 1 -105 61 l-60 62 60 -57 c52
-49 66 -57 105 -61z m-545 93 c-3 -5 -14 -10 -23 -9 -14 0 -13 2 3 9 27 11 27
11 20 0z m1945 7 c0 -2 -17 -19 -37 -38 l-38 -34 34 38 c33 34 41 42 41 34z
m1566 -12 c-11 -8 -29 -15 -40 -14 -15 0 -11 4 14 14 45 17 49 17 26 0z
m-2302 -14 c-10 -10 -21 -16 -24 -14 -3 3 4 11 14 19 28 20 33 17 10 -5z
m1776 -16 c19 -19 32 -35 29 -35 -3 0 -20 16 -39 35 -19 19 -32 35 -29 35 3 0
20 -16 39 -35z m-1224 -7 l29 -33 -32 29 c-31 28 -38 36 -30 36 2 0 16 -15 33
-32z m-2856 -12 c8 -3 -1 -4 -20 -1 -19 3 -42 12 -50 21 -15 15 -6 13 70 -20z
m1043 4 c40 -7 40 -8 9 -9 -30 -1 -92 22 -92 35 0 2 9 0 20 -6 12 -6 40 -15
63 -20z m2442 21 c-18 -17 -82 -24 -90 -10 -6 8 -4 11 7 7 8 -4 30 -3 49 2 19
4 36 8 39 9 2 1 0 -3 -5 -8z m1141 -16 c-11 -8 -27 -15 -35 -15 -9 1 -2 7 14
15 39 18 44 18 21 0z m-460 -53 c-16 -2 -32 0 -37 5 -5 5 7 7 29 4 34 -5 35
-6 8 -9z m-1233 1 c-7 -2 -19 -2 -25 0 -7 3 -2 5 12 5 14 0 19 -2 13 -5z"/>
<path d="M405 3646 c0 -13 5 -22 11 -19 7 2 10 13 7 24 -7 27 -18 24 -18 -5z"/>
<path d="M126 3281 c-3 -5 2 -15 12 -22 15 -13 16 -12 4 3 -10 13 -10 17 0 21
9 4 9 6 1 6 -6 1 -14 -3 -17 -8z"/>
<path d="M1591 3573 c-13 -14 -12 -18 8 -34 12 -10 22 -20 21 -23 -1 -17 1
-17 15 -6 8 7 13 16 10 20 -3 5 -1 11 4 15 5 3 9 13 8 23 -1 23 -47 27 -66 5z
m46 -39 c0 -18 0 -18 -21 5 -17 19 -17 19 1 15 11 -3 20 -12 20 -20z"/>
<path d="M1584 3485 c-17 -13 -17 -14 -2 -15 9 0 20 5 23 11 11 17 0 20 -21 4z"/>
<path d="M1624 3474 c-18 -14 -18 -15 4 -4 12 6 22 13 22 15 0 8 -5 6 -26 -11z"/>
<path d="M1631 3434 c0 -11 3 -14 6 -6 3 7 2 16 -1 19 -3 4 -6 -2 -5 -13z"/>
<path d="M1585 3430 c4 -6 11 -8 16 -5 14 9 11 15 -7 15 -8 0 -12 -5 -9 -10z"/>
<path d="M1556 3374 c-5 -14 -4 -15 9 -4 17 14 19 20 6 20 -5 0 -12 -7 -15
-16z"/>
<path d="M2137 3663 c-10 -9 -9 -23 1 -23 5 0 9 7 9 15 0 17 -1 18 -10 8z"/>
<path d="M2145 3611 c-3 -5 -2 -12 3 -15 5 -3 9 1 9 9 0 17 -3 19 -12 6z"/>
<path d="M2943 3491 c-44 -22 -42 -35 2 -14 19 9 35 20 35 25 0 4 -1 7 -2 7
-2 -1 -18 -9 -35 -18z"/>
<path d="M2830 3385 c-7 -9 -11 -18 -8 -20 3 -3 11 1 18 10 7 9 11 18 8 20 -3
3 -11 -1 -18 -10z"/>
<path d="M2530 3156 c0 -2 7 -6 15 -10 8 -3 15 -1 15 4 0 6 -7 10 -15 10 -8 0
-15 -2 -15 -4z"/>
<path d="M1461 3376 c-9 -11 -8 -15 5 -20 9 -3 20 -4 25 0 5 3 9 1 9 -4 0 -6
7 -13 16 -16 14 -5 15 -4 5 8 -7 8 -9 21 -5 27 4 8 3 9 -5 5 -6 -4 -18 -3 -25
3 -10 8 -16 8 -25 -3z"/>
<path d="M1600 2740 c0 -13 5 -20 13 -17 6 2 12 10 12 17 0 7 -6 15 -12 18 -8
2 -13 -5 -13 -18z"/>
<path d="M3337 2251 c-4 -16 -1 -18 16 -12 28 10 34 31 9 31 -11 0 -22 -8 -25
-19z"/>
<path d="M110 2105 c0 -8 7 -15 15 -15 8 0 15 7 15 15 0 8 -7 15 -15 15 -8 0
-15 -7 -15 -15z"/>
<path d="M2481 1882 c-9 -16 -7 -19 12 -18 12 0 22 7 22 15 0 22 -23 24 -34 3z"/>
<path d="M1624 1517 c-13 -15 3 -34 29 -34 21 0 22 11 1 31 -18 19 -16 19 -30
3z"/>
<path d="M855 3640 c-4 -12 -1 -28 6 -36 19 -23 52 -13 60 19 4 15 4 25 -1 22
-5 -3 -10 -2 -13 2 -2 5 -3 3 -1 -3 1 -6 -4 -11 -11 -11 -7 0 -11 6 -8 14 3 7
-2 13 -10 13 -9 0 -19 -9 -22 -20z"/>
<path d="M1040 3616 c0 -9 7 -16 16 -16 9 0 14 5 12 12 -6 18 -28 21 -28 4z"/>
<path d="M2485 3621 c-7 -12 12 -24 25 -16 11 7 4 25 -10 25 -5 0 -11 -4 -15
-9z"/>
<path d="M3937 3623 c-12 -11 -8 -23 8 -23 8 0 15 7 15 15 0 16 -12 20 -23 8z"/>
<path d="M3395 3580 c3 -5 11 -10 16 -10 6 0 7 5 4 10 -3 6 -11 10 -16 10 -6
0 -7 -4 -4 -10z"/>
<path d="M3310 3571 c0 -24 50 -36 58 -13 2 7 -2 10 -11 6 -8 -3 -18 -1 -22 5
-8 13 -25 15 -25 2z"/>
<path d="M3540 3568 c0 -7 5 -20 10 -28 8 -12 10 -9 10 13 0 15 -4 27 -10 27
-5 0 -10 -6 -10 -12z"/>
<path d="M868 3562 c-9 -2 -19 -11 -22 -20 -3 -9 -9 -24 -12 -32 -5 -13 -4
-13 5 0 7 10 11 11 11 3 0 -7 5 -13 11 -13 5 0 7 5 4 10 -3 6 1 10 9 10 9 0
16 5 16 12 0 6 3 8 6 5 4 -4 1 -13 -6 -22 -8 -10 -9 -15 -2 -15 6 0 15 8 20
18 11 21 -15 49 -40 44z"/>
<path d="M3396 3544 c-4 -10 -1 -14 6 -12 15 5 23 28 10 28 -5 0 -13 -7 -16
-16z"/>
<path d="M3352 3503 c-1 -14 2 -32 6 -40 7 -12 10 -12 21 1 11 13 11 17 -2 22
-9 3 -13 12 -11 19 3 7 2 15 -3 18 -5 3 -10 -6 -11 -20z"/>
<path d="M3493 3515 c0 -8 4 -12 9 -9 5 3 6 10 3 15 -9 13 -12 11 -12 -6z"/>
<path d="M3395 3430 c10 -11 20 -20 22 -20 2 0 -1 9 -7 20 -6 11 -16 20 -22
20 -6 0 -3 -9 7 -20z"/>
<path d="M998 3323 c7 -3 16 -2 19 1 4 3 -2 6 -13 5 -11 0 -14 -3 -6 -6z"/>
</g>
</svg>
